<svg width="20" height="20" viewBox="0 0 20 20" fill="none" xmlns="http://www.w3.org/2000/svg">
<g clip-path="url(#clip0_102_30)">
<path d="M0.625 10C0.625 12.4864 1.61272 14.871 3.37087 16.6291C5.12903 18.3873 7.5136 19.375 10 19.375C12.4864 19.375 14.871 18.3873 16.6291 16.6291C18.3873 14.871 19.375 12.4864 19.375 10C19.375 7.5136 18.3873 5.12903 16.6291 3.37087C14.871 1.61272 12.4864 0.625 10 0.625C7.5136 0.625 5.12903 1.61272 3.37087 3.37087C1.61272 5.12903 0.625 7.5136 0.625 10Z" fill="#656769"/>
<path d="M10 0.625C9.57505 0.628912 9.15081 0.660647 8.73 0.72C12.23 1.34 14.91 5.255 14.91 10C14.91 14.745 12.22 18.66 8.73 19.28C9.15081 19.3394 9.57505 19.3711 10 19.375C12.4864 19.375 14.871 18.3873 16.6291 16.6291C18.3873 14.871 19.375 12.4864 19.375 10C19.375 7.5136 18.3873 5.12903 16.6291 3.37087C14.871 1.61272 12.4864 0.625 10 0.625Z" fill="#FFE500"/>
<path d="M10 2.83C12.2953 2.8302 14.5107 3.6729 16.2259 5.19823C17.9411 6.72356 19.0368 8.8254 19.305 11.105C19.351 10.7385 19.3744 10.3694 19.375 10C19.375 7.5136 18.3873 5.12903 16.6291 3.37087C14.871 1.61272 12.4864 0.625 10 0.625C7.5136 0.625 5.12903 1.61272 3.37087 3.37087C1.61272 5.12903 0.625 7.5136 0.625 10C0.628081 10.3693 0.65145 10.7382 0.695 11.105C0.963237 8.8254 2.05888 6.72356 3.77407 5.19823C5.48926 3.6729 7.70468 2.8302 10 2.83Z" fill="#87898C"/>
<path d="M10 0.625C9.75 0.625 9.5 0.625 9.265 0.66C9.03 0.695 8.91 0.695 8.735 0.72C10.3197 1.03943 11.7322 1.92892 12.705 3.22C14.4527 3.74858 16.0081 4.77573 17.1805 6.17548C18.3528 7.57522 19.0912 9.2867 19.305 11.1C19.305 10.99 19.305 10.875 19.335 10.765C19.335 10.51 19.375 10.265 19.375 10C19.3757 8.76867 19.1336 7.54929 18.6627 6.41157C18.1918 5.27384 17.5013 4.24009 16.6306 3.36941C15.7599 2.49873 14.7262 1.8082 13.5884 1.33729C12.4507 0.866386 11.2313 0.624343 10 0.625Z" fill="#FFF48C"/>
<path d="M0.625 10C0.625 12.4864 1.61272 14.871 3.37087 16.6291C5.12903 18.3873 7.5136 19.375 10 19.375C12.4864 19.375 14.871 18.3873 16.6291 16.6291C18.3873 14.871 19.375 12.4864 19.375 10C19.375 7.5136 18.3873 5.12903 16.6291 3.37087C14.871 1.61272 12.4864 0.625 10 0.625C7.5136 0.625 5.12903 1.61272 3.37087 3.37087C1.61272 5.12903 0.625 7.5136 0.625 10V10Z" stroke="#45413C" stroke-width="0.5" stroke-linecap="round" stroke-linejoin="round"/>
<path d="M16.935 7.37C16.32 7.82 15.31 7.485 14.685 6.625C14.06 5.765 14.045 4.705 14.685 4.255C15.325 3.805 16.305 4.14 16.935 5C17.565 5.86 17.55 6.92 16.935 7.37Z" fill="#FFF48C"/>
<path d="M14.66 5.41C15.275 4.96 16.28 5.295 16.91 6.155C17.0797 6.38443 17.2083 6.64158 17.29 6.915C17.3852 6.59119 17.4003 6.24912 17.3341 5.91818C17.2679 5.58723 17.1224 5.2773 16.91 5.015C16.28 4.155 15.275 3.82 14.66 4.27C14.44 4.46761 14.2875 4.72918 14.2238 5.01796C14.1601 5.30673 14.1885 5.6082 14.305 5.88C14.3735 5.69125 14.4972 5.52747 14.66 5.41Z" fill="#EBCB00"/>
<path d="M16.935 7.39C16.32 7.835 15.31 7.505 14.685 6.64C14.06 5.775 14.045 4.72 14.685 4.27C15.325 3.82 16.305 4.155 16.935 5.015C17.565 5.875 17.55 6.94 16.935 7.39Z" stroke="#45413C" stroke-width="0.5" stroke-linecap="round" stroke-linejoin="round"/>
<path d="M2.715 8.445C3.145 8.61 3.715 8.22 3.935 7.58C4.155 6.94 4.03 6.29 3.6 6.125C3.17 5.96 2.63 6.35 2.385 7C2.14 7.65 2.29 8.28 2.715 8.445Z" fill="#87898C"/>
<path d="M2.385 7.815C2.63 7.175 3.175 6.79 3.6 6.95C3.69429 6.99143 3.77819 7.05329 3.84564 7.13112C3.91309 7.20894 3.9624 7.30078 3.99 7.4C4.145 6.825 3.99 6.275 3.6 6.125C3.21 5.975 2.63 6.35 2.385 7C2.25799 7.31839 2.23867 7.6696 2.33 8C2.35 7.935 2.365 7.875 2.385 7.815Z" fill="#525252"/>
<path d="M2.715 8.445C3.145 8.61 3.715 8.22 3.935 7.58C4.155 6.94 4.03 6.29 3.6 6.125C3.17 5.96 2.63 6.35 2.385 7C2.14 7.65 2.29 8.28 2.715 8.445Z" stroke="#45413C" stroke-width="0.5" stroke-linecap="round" stroke-linejoin="round"/>
<path d="M9.94 17.245C9.765 17.905 8.79 18.245 7.755 17.955C6.72 17.665 6.03 16.955 6.2 16.27C6.37 15.585 7.35 15.27 8.385 15.555C9.42 15.84 10.11 16.58 9.94 17.245Z" fill="#87898C"/>
<path d="M8.385 16.35C8.69257 16.4138 8.98308 16.5422 9.23734 16.7267C9.49161 16.9111 9.70384 17.1474 9.86 17.42C9.89214 17.365 9.91734 17.3062 9.935 17.245C10.11 16.58 9.435 15.825 8.385 15.555C7.335 15.285 6.385 15.605 6.2 16.27C6.15468 16.4781 6.18296 16.6954 6.28 16.885C6.57 16.345 7.45 16.105 8.385 16.35Z" fill="#525252"/>
<path d="M9.94 17.245C9.765 17.905 8.79 18.245 7.755 17.955C6.72 17.665 6.03 16.955 6.2 16.27C6.37 15.585 7.35 15.27 8.385 15.555C9.42 15.84 10.11 16.58 9.94 17.245Z" stroke="#45413C" stroke-width="0.5" stroke-linecap="round" stroke-linejoin="round"/>
<path d="M15.79 11.515C15.79 11.7709 15.8917 12.0164 16.0726 12.1974C16.2536 12.3783 16.4991 12.48 16.755 12.48C17.0109 12.48 17.2564 12.3783 17.4374 12.1974C17.6183 12.0164 17.72 11.7709 17.72 11.515C17.72 11.2591 17.6183 11.0136 17.4374 10.8326C17.2564 10.6517 17.0109 10.55 16.755 10.55C16.4991 10.55 16.2536 10.6517 16.0726 10.8326C15.8917 11.0136 15.79 11.2591 15.79 11.515Z" fill="#FFF48C"/>
<path d="M16.755 11.275C16.9475 11.2751 17.1356 11.3327 17.2951 11.4405C17.4546 11.5483 17.5782 11.7014 17.65 11.88C17.6959 11.7638 17.7197 11.64 17.72 11.515C17.72 11.2591 17.6183 11.0136 17.4374 10.8326C17.2564 10.6517 17.0109 10.55 16.755 10.55C16.4991 10.55 16.2536 10.6517 16.0726 10.8326C15.8917 11.0136 15.79 11.2591 15.79 11.515C15.7903 11.64 15.8141 11.7638 15.86 11.88C15.9318 11.7014 16.0554 11.5483 16.2149 11.4405C16.3744 11.3327 16.5625 11.2751 16.755 11.275Z" fill="#EBCB00"/>
<path d="M15.79 11.515C15.79 11.7709 15.8917 12.0164 16.0726 12.1974C16.2536 12.3783 16.4991 12.48 16.755 12.48C17.0109 12.48 17.2564 12.3783 17.4374 12.1974C17.6183 12.0164 17.72 11.7709 17.72 11.515C17.72 11.2591 17.6183 11.0136 17.4374 10.8326C17.2564 10.6517 17.0109 10.55 16.755 10.55C16.4991 10.55 16.2536 10.6517 16.0726 10.8326C15.8917 11.0136 15.79 11.2591 15.79 11.515V11.515Z" stroke="#45413C" stroke-width="0.5" stroke-linecap="round" stroke-linejoin="round"/>
<path d="M5.035 10.69C5.035 10.9459 5.13667 11.1914 5.31764 11.3724C5.49861 11.5533 5.74407 11.655 6 11.655C6.25593 11.655 6.50139 11.5533 6.68236 11.3724C6.86333 11.1914 6.965 10.9459 6.965 10.69C6.965 10.4341 6.86333 10.1886 6.68236 10.0076C6.50139 9.82667 6.25593 9.725 6 9.725C5.74407 9.725 5.49861 9.82667 5.31764 10.0076C5.13667 10.1886 5.035 10.4341 5.035 10.69Z" fill="#87898C"/>
<path d="M6 10.415C6.19543 10.4138 6.38651 10.4727 6.54745 10.5835C6.7084 10.6944 6.83145 10.852 6.9 11.035C6.94184 10.9247 6.96385 10.8079 6.965 10.69C6.965 10.4341 6.86333 10.1886 6.68236 10.0076C6.50139 9.82667 6.25593 9.725 6 9.725C5.74407 9.725 5.49861 9.82667 5.31764 10.0076C5.13667 10.1886 5.035 10.4341 5.035 10.69C5.03553 10.8085 5.05931 10.9257 5.105 11.035C5.17265 10.8524 5.29478 10.695 5.45487 10.5841C5.61496 10.4732 5.80526 10.4141 6 10.415Z" fill="#525252"/>
<path d="M5.035 10.69C5.035 10.9459 5.13667 11.1914 5.31764 11.3724C5.49861 11.5533 5.74407 11.655 6 11.655C6.25593 11.655 6.50139 11.5533 6.68236 11.3724C6.86333 11.1914 6.965 10.9459 6.965 10.69C6.965 10.4341 6.86333 10.1886 6.68236 10.0076C6.50139 9.82667 6.25593 9.725 6 9.725C5.74407 9.725 5.49861 9.82667 5.31764 10.0076C5.13667 10.1886 5.035 10.4341 5.035 10.69V10.69Z" stroke="#45413C" stroke-width="0.5" stroke-linecap="round" stroke-linejoin="round"/>
<path d="M5.865 5.31C5.865 5.74893 6.03937 6.16989 6.34974 6.48026C6.66011 6.79063 7.08107 6.965 7.52 6.965C7.95893 6.965 8.37989 6.79063 8.69026 6.48026C9.00063 6.16989 9.175 5.74893 9.175 5.31C9.175 4.87107 9.00063 4.45011 8.69026 4.13974C8.37989 3.82937 7.95893 3.655 7.52 3.655C7.08107 3.655 6.66011 3.82937 6.34974 4.13974C6.03937 4.45011 5.865 4.87107 5.865 5.31Z" fill="#87898C"/>
<path d="M7.5 4.69C7.84704 4.69118 8.18481 4.80207 8.46501 5.00683C8.7452 5.21159 8.95346 5.49972 9.06 5.83C9.11773 5.66936 9.14979 5.50062 9.155 5.33C9.155 4.89107 8.98063 4.47011 8.67026 4.15974C8.35989 3.84937 7.93893 3.675 7.5 3.675C7.06107 3.675 6.64011 3.84937 6.32974 4.15974C6.01937 4.47011 5.845 4.89107 5.845 5.33C5.84852 5.50036 5.87889 5.6691 5.935 5.83C6.04247 5.49932 6.25166 5.21104 6.53271 5.00632C6.81376 4.80159 7.15229 4.69089 7.5 4.69Z" fill="#525252"/>
<path d="M5.88 5.31C5.88 5.74893 6.05437 6.16989 6.36474 6.48026C6.67511 6.79063 7.09607 6.965 7.535 6.965C7.97393 6.965 8.39489 6.79063 8.70526 6.48026C9.01564 6.16989 9.19 5.74893 9.19 5.31C9.19 4.87107 9.01564 4.45011 8.70526 4.13974C8.39489 3.82937 7.97393 3.655 7.535 3.655C7.09607 3.655 6.67511 3.82937 6.36474 4.13974C6.05437 4.45011 5.88 4.87107 5.88 5.31V5.31Z" stroke="#45413C" stroke-width="0.5" stroke-linecap="round" stroke-linejoin="round"/>
<path d="M10.275 13.035C10.275 13.401 10.4204 13.752 10.6792 14.0108C10.938 14.2696 11.289 14.415 11.655 14.415C12.021 14.415 12.372 14.2696 12.6308 14.0108C12.8896 13.752 13.035 13.401 13.035 13.035C13.035 12.669 12.8896 12.318 12.6308 12.0592C12.372 11.8004 12.021 11.655 11.655 11.655C11.289 11.655 10.938 11.8004 10.6792 12.0592C10.4204 12.318 10.275 12.669 10.275 13.035Z" fill="#87898C"/>
<path d="M11.655 12.5C11.9472 12.5021 12.2313 12.5965 12.4666 12.7699C12.7019 12.9432 12.8764 13.1865 12.965 13.465C13.0337 13.2576 13.0522 13.0369 13.0189 12.821C12.9857 12.6051 12.9016 12.4002 12.7738 12.2231C12.6459 12.046 12.4778 11.9018 12.2833 11.8024C12.0888 11.7029 11.8734 11.6511 11.655 11.6511C11.4366 11.6511 11.2212 11.7029 11.0267 11.8024C10.8322 11.9018 10.6641 12.046 10.5362 12.2231C10.4083 12.4002 10.3243 12.6051 10.2911 12.821C10.2578 13.0369 10.2763 13.2576 10.345 13.465C10.4329 13.1861 10.6072 12.9423 10.8427 12.7689C11.0781 12.5955 11.3626 12.5013 11.655 12.5Z" fill="#525252"/>
<path d="M10.275 13.035C10.275 13.401 10.4204 13.752 10.6792 14.0108C10.938 14.2696 11.289 14.415 11.655 14.415C12.021 14.415 12.372 14.2696 12.6308 14.0108C12.8896 13.752 13.035 13.401 13.035 13.035C13.035 12.669 12.8896 12.318 12.6308 12.0592C12.372 11.8004 12.021 11.655 11.655 11.655C11.289 11.655 10.938 11.8004 10.6792 12.0592C10.4204 12.318 10.275 12.669 10.275 13.035V13.035Z" stroke="#45413C" stroke-width="0.5" stroke-linecap="round" stroke-linejoin="round"/>
</g>
<defs>
<clipPath id="clip0_102_30">
<rect width="20" height="20" fill="white"/>
</clipPath>
</defs>
</svg>
