<svg width="85" height="36" viewBox="0 0 85 36" fill="none" xmlns="http://www.w3.org/2000/svg">
<g clip-path="url(#clip0_201_674)">
<rect x="0.5" y="0.5" width="84" height="35" rx="6.5" fill="white" stroke="#83CBFF"/>
<g clip-path="url(#clip1_201_674)">
<path d="M8.98999 13C8.44323 13 8 13.4517 8 13.9985V14C8 14.4995 8.25209 14.7505 8.50442 15.0017C8.75725 15.2534 9.01032 15.5054 9.01032 16.0078V16.1625C9.00607 16.2345 9.00391 16.307 9.00391 16.38V18.62C9.00391 21.57 11.2076 23.9892 13.937 23.9892H15.9102C18.7133 23.9892 21 21.51 21 18.47V16.9972H21.0039C21.0039 16.461 21.3182 16 22.0028 16C22.6438 16 22.962 16.3972 23 16.8943V18.47C23 21.51 25.2801 23.98 28.0865 23.98H30.062C32.7852 23.98 35.01 21.58 35.01 18.62V17.0039H35.013V16C35.013 15.501 35.2588 15.2521 35.505 15.0027C35.75 14.7544 35.9956 14.5057 35.9999 14.0096L36 13.9985V13.9961C35.9987 13.4504 35.556 13 35.01 13H25.99C25.9283 13 25.8679 13.0058 25.8094 13.0167C25.0939 13.0942 24.4478 13.436 23.9561 13.95C23.8726 14.0282 23.7935 14.1073 23.7157 14.1851C23.2875 14.6133 22.897 15.0039 22.0028 15.0039C21.0888 15.0039 20.7129 14.6249 20.2747 14.1829C20.1913 14.0988 20.1056 14.0124 20.0136 13.926C19.5278 13.4287 18.8967 13.0974 18.1988 13.0183C18.1377 13.0063 18.0746 13 18.01 13H8.98999Z" fill="#533566"/>
<path d="M30.0526 23.0048C32.2682 23.0048 34.0032 21.01 34.0032 18.61V16.38C34.0032 15.07 33.0898 14 31.8804 14H26.1201C24.9108 14 24.0154 15.07 24.0062 16.38V18.46C24.0062 20.95 25.7877 23.0048 28.0771 23.0048H30.0526ZM20.0055 18.47C20.0055 20.95 18.206 23.0039 15.9101 23.0039H13.9461C11.7331 23.0039 10.0029 21.02 10.0029 18.62V16.38C10.0029 15.07 10.9125 14 12.1204 14H17.8833C19.0912 14 20.0055 15.07 20.0055 16.38V18.47Z" fill="#83CBFF"/>
<path d="M31.7725 18.9009C32.7872 18.556 33.2715 17.4274 32.8448 16.3824C32.4182 15.3269 31.2421 14.7522 30.2275 15.097C29.2128 15.4419 28.7285 16.5705 29.1551 17.6155C29.5818 18.6605 30.7579 19.2457 31.7725 18.9009ZM17.7725 18.9048C18.7872 18.5599 19.2715 17.431 18.8448 16.3858C18.4182 15.3301 17.2421 14.7552 16.2275 15.1001C15.2128 15.4346 14.7285 16.5739 15.1551 17.6192C15.5818 18.6644 16.7579 19.2393 17.7725 18.9048Z" fill="white"/>
</g>
<path d="M44.2969 24V12.7266H49.3359C51.9766 12.7266 53.6406 14.3359 53.6406 16.8359V16.8516C53.6406 19.3516 51.9766 20.9219 49.3359 20.9219H47.6094V24H44.2969ZM48.5469 15.2188H47.6094V18.4766H48.5469C49.6406 18.4766 50.2969 17.9297 50.2969 16.8516V16.8359C50.2969 15.7578 49.6406 15.2188 48.5469 15.2188ZM55.6875 24V12.7266H60.7656C63.7266 12.7266 65.2422 14.1406 65.2422 16.5547V16.5703C65.2422 17.8906 64.5938 19.1641 63.4297 19.7266L65.5703 24H61.8672L60.0859 20.2188H59V24H55.6875ZM59 18.0312H60.3828C61.2891 18.0312 61.8672 17.4609 61.8672 16.6094V16.5938C61.8672 15.7656 61.2891 15.1719 60.3828 15.1719H59V18.0312ZM72.5703 24.3125C69.1094 24.3125 66.8906 22.0547 66.8906 18.3672V18.3516C66.8906 14.6797 69.125 12.4141 72.5703 12.4141C76.0156 12.4141 78.2422 14.6797 78.2422 18.3516V18.3672C78.2422 22.0547 76.0156 24.3125 72.5703 24.3125ZM72.5703 21.6094C73.9297 21.6094 74.8672 20.3438 74.8672 18.3672V18.3516C74.8672 16.3828 73.9297 15.1172 72.5703 15.1172C71.2031 15.1172 70.2656 16.3828 70.2656 18.3516V18.3672C70.2656 20.3438 71.2031 21.6094 72.5703 21.6094Z" fill="#83CBFF"/>
</g>
<defs>
<clipPath id="clip0_201_674">
<rect width="85" height="36" fill="white"/>
</clipPath>
<clipPath id="clip1_201_674">
<rect width="28" height="11" fill="white" transform="translate(8 13)"/>
</clipPath>
</defs>
</svg>
