<svg width="1024" height="1024" viewBox="0 0 1024 1024" fill="none" xmlns="http://www.w3.org/2000/svg">
<path d="M658.674 348.175C620.71 348.175 589.827 317.288 589.827 279.326C589.827 276.936 587.891 275 585.501 275C583.111 275 581.175 276.936 581.175 279.326C581.175 317.291 550.288 348.175 512.326 348.175C509.936 348.175 508 350.111 508 352.501C508 354.891 509.936 356.827 512.326 356.827C550.29 356.827 581.175 387.714 581.175 425.674C581.175 428.064 583.111 430 585.501 430C587.891 430 589.827 428.064 589.827 425.674C589.827 387.71 620.714 356.827 658.674 356.827C661.064 356.827 663 354.891 663 352.501C663.002 350.111 661.062 348.175 658.674 348.175Z" fill="#565656"/>
<path d="M576.848 352.505C587.873 342.891 595.834 329.859 598.998 315.055C592.637 304.634 588.966 292.4 588.966 279.326C588.966 276.936 587.027 275 584.633 275C582.238 275 580.299 276.936 580.299 279.326C580.299 303.798 567.432 325.315 548.108 337.526C545.498 339.175 542.768 340.654 539.936 341.951C539.832 341.997 539.728 342.044 539.625 342.092C536.851 343.344 533.981 344.418 531.028 345.301C530.824 345.362 530.617 345.418 530.413 345.475C529.161 345.837 527.894 346.16 526.613 346.451C526.356 346.51 526.101 346.574 525.846 346.63C524.408 346.939 522.954 347.206 521.484 347.424C521.23 347.46 520.975 347.486 520.721 347.52C519.512 347.686 518.288 347.818 517.06 347.918C516.638 347.952 516.217 347.988 515.793 348.014C514.374 348.106 512.943 348.167 511.5 348.17C511.444 348.17 511.39 348.173 511.334 348.173C508.94 348.173 507 350.109 507 352.499C507 354.889 508.94 356.826 511.334 356.826C511.39 356.826 511.444 356.829 511.5 356.829C512.943 356.832 514.371 356.892 515.793 356.984C516.217 357.012 516.64 357.046 517.06 357.08C518.29 357.183 519.512 357.314 520.721 357.478C520.975 357.513 521.23 357.539 521.484 357.575C522.954 357.792 524.408 358.06 525.846 358.369C526.104 358.425 526.358 358.488 526.613 358.547C527.893 358.838 529.158 359.161 530.41 359.523C530.617 359.582 530.825 359.638 531.031 359.701C533.984 360.583 536.853 361.657 539.626 362.91C539.731 362.956 539.835 363.003 539.938 363.049C542.769 364.346 545.499 365.822 548.11 367.474C567.434 379.688 580.301 401.202 580.301 425.674C580.301 428.064 582.24 430 584.634 430C587.028 430 588.968 428.064 588.968 425.674C588.968 412.6 592.638 400.368 599 389.945C595.835 375.154 587.875 362.12 576.848 352.505Z" fill="#565656"/>
<path d="M707.726 531.5C723.894 531.5 737 518.404 737 502.25C737 486.096 723.894 473 707.726 473C691.558 473 678.452 486.096 678.452 502.25C678.452 518.404 691.558 531.5 707.726 531.5Z" fill="#565656"/>
<path d="M177.274 871C193.442 871 206.548 857.904 206.548 841.75C206.548 825.596 193.442 812.5 177.274 812.5C161.107 812.5 148 825.596 148 841.75C148 857.904 161.107 871 177.274 871Z" fill="#565656"/>
<path d="M568.712 686.651C435.139 642.468 338.493 516.422 338.493 368.232C338.493 294.052 362.248 223.744 407.181 164.921C413.061 157.222 412.944 146.514 406.902 138.942C400.86 131.371 390.44 128.882 381.633 132.917C313.212 164.209 255.196 214.098 213.861 277.182C171.426 341.943 149 417.266 149 495.011C149 714.462 327.538 893 546.99 893C624.736 893 700.059 870.571 764.82 828.139C827.905 786.804 877.792 728.788 909.086 660.366C913.115 651.555 910.631 641.137 903.061 635.094C895.49 629.053 884.779 628.938 877.082 634.816C818.259 679.753 747.954 703.504 673.771 703.504C653.25 703.504 633.151 701.65 613.635 698.105" fill="#565656"/>
<path d="M800.866 791.91C736.135 834.361 660.852 856.799 583.144 856.799C363.802 856.799 185.354 678.183 185.354 458.636C185.354 380.857 207.771 305.499 250.182 240.711C260.743 224.579 272.398 209.317 285.032 195C257.852 218.789 233.873 246.29 213.828 276.913C171.415 341.702 149 417.058 149 494.837C149 714.384 327.448 893 546.79 893C624.498 893 699.783 870.561 764.512 828.111C794.526 808.424 821.546 784.951 845 758.379C831.142 770.505 816.406 781.717 800.866 791.91Z" fill="#565656"/>
<path d="M584.982 536.344C594.595 536.344 602.387 528.564 602.387 518.966C602.387 509.368 594.595 501.588 584.982 501.588C575.369 501.588 567.576 509.368 567.576 518.966C567.576 528.564 575.369 536.344 584.982 536.344Z" fill="#565656"/>
<path d="M130.405 745C140.018 745 147.811 737.219 147.811 727.622C147.811 718.024 140.018 710.243 130.405 710.243C120.793 710.243 113 718.024 113 727.622C113 737.219 120.793 745 130.405 745Z" fill="#565656"/>
<path d="M696.594 267.757C706.207 267.757 714 259.976 714 250.378C714 240.781 706.207 233 696.594 233C686.982 233 679.189 240.781 679.189 250.378C679.189 259.976 686.982 267.757 696.594 267.757Z" fill="#565656"/>
</svg>
