<svg width="28" height="24" viewBox="0 0 28 24" fill="none" xmlns="http://www.w3.org/2000/svg">
<g clip-path="url(#clip0_375_934)">
<path d="M22.2101 0.899902H5.79012C5.70882 0.901028 5.62882 0.920498 5.5561 0.95686C5.48337 0.993222 5.4198 1.04554 5.37012 1.1099L0.15012 7.9999C0.0711435 8.09366 0.027832 8.21231 0.027832 8.3349C0.027832 8.45749 0.0711435 8.57614 0.15012 8.6699L13.5901 22.8999C13.6388 22.952 13.6976 22.9935 13.763 23.0219C13.8283 23.0503 13.8989 23.0649 13.9701 23.0649C14.0414 23.0649 14.1119 23.0503 14.1773 23.0219C14.2426 22.9935 14.3015 22.952 14.3501 22.8999L27.7901 8.6699C27.8691 8.57614 27.9124 8.45749 27.9124 8.3349C27.9124 8.21231 27.8691 8.09366 27.7901 7.9999L22.6301 1.1099C22.5804 1.04554 22.5169 0.993222 22.4441 0.95686C22.3714 0.920498 22.2914 0.901028 22.2101 0.899902Z" fill="#00A6ED"/>
<path d="M13.5936 22.9023C13.7499 23.068 13.927 23.0781 13.996 23.0625L14.0123 22.9648V6.99609H0.910034C0.709511 7.26172 0.277994 7.83281 0.156119 7.99219C0.00377561 8.19141 -0.0977869 8.41016 0.156119 8.67969C0.410026 8.94922 13.3983 22.6953 13.5936 22.9023Z" fill="#1C5CD7"/>
<path d="M13.9962 0.899902H5.79011C5.70881 0.901028 5.62881 0.920498 5.55608 0.95686C5.48336 0.993222 5.41979 1.04554 5.37011 1.1099L0.532815 7.49476C0.331159 7.75353 0.127098 8.20687 1.03407 8.20723C4.40343 8.20853 7.18999 8.216 9.13964 8.216C10.1859 6.65037 11.8636 4.13856 13.9962 0.899902Z" fill="#0084CE"/>
<path d="M14.0001 23.0585L9.14014 8.22989H18.8601L14.0001 23.0585Z" fill="#AEDDFF"/>
<path d="M22.0469 0.900146H14.0156V8.19776H27.8994C27.8972 8.1771 27.8741 8.10892 27.7989 8.00153C27.7049 7.86728 22.8164 1.35938 22.6992 1.19531C22.582 1.03125 22.3711 0.900146 22.0469 0.900146Z" fill="#26EAFC"/>
<path d="M14.0001 0.899902L16.4301 4.5699L18.8601 8.2299H9.14014L11.5701 4.5699L14.0001 0.899902Z" fill="#B4F6FC"/>
</g>
<defs>
<clipPath id="clip0_375_934">
<rect width="28" height="24" fill="white"/>
</clipPath>
</defs>
</svg>
