<svg width="20" height="20" viewBox="0 0 20 20" fill="none" xmlns="http://www.w3.org/2000/svg">
<g clip-path="url(#clip0_103_114)">
<path d="M19.375 10C19.375 12.4864 18.3873 14.871 16.6291 16.6291C14.871 18.3873 12.4864 19.375 10 19.375C7.5136 19.375 5.12903 18.3873 3.37087 16.6291C1.61272 14.871 0.625 12.4864 0.625 10C0.625 7.5136 1.61272 5.12903 3.37087 3.37087C5.12903 1.61272 7.5136 0.625 10 0.625C12.4864 0.625 14.871 1.61272 16.6291 3.37087C18.3873 5.12903 19.375 7.5136 19.375 10V10Z" fill="#656769"/>
<path d="M10 0.625C10.425 0.628912 10.8492 0.660647 11.27 0.72C7.77 1.34 5.09 5.255 5.09 10C5.09 14.745 7.78 18.66 11.27 19.28C10.8492 19.3394 10.425 19.3711 10 19.375C7.5136 19.375 5.12903 18.3873 3.37087 16.6291C1.61272 14.871 0.625 12.4864 0.625 10C0.625 7.5136 1.61272 5.12903 3.37087 3.37087C5.12903 1.61272 7.5136 0.625 10 0.625V0.625Z" fill="#FFE500"/>
<path d="M10 2.83C7.70468 2.8302 5.48927 3.6729 3.77407 5.19823C2.05888 6.72356 0.963237 8.8254 0.695 11.105C0.64901 10.7385 0.625633 10.3694 0.625 10C0.625 7.5136 1.61272 5.12903 3.37087 3.37087C5.12903 1.61272 7.5136 0.625 10 0.625C12.4864 0.625 14.871 1.61272 16.6291 3.37087C18.3873 5.12903 19.375 7.5136 19.375 10C19.3719 10.3693 19.3486 10.7382 19.305 11.105C19.0368 8.8254 17.9411 6.72356 16.2259 5.19823C14.5107 3.6729 12.2953 2.8302 10 2.83Z" fill="#87898C"/>
<path d="M10 0.624999C10.25 0.624999 10.5 0.625 10.735 0.66C10.97 0.695 11.09 0.694999 11.265 0.719999C9.68032 1.03943 8.26781 1.92892 7.295 3.22C5.54733 3.74858 3.99192 4.77573 2.81954 6.17548C1.64716 7.57522 0.908795 9.2867 0.694999 11.1V11.1C0.694999 10.99 0.695 10.875 0.665 10.765C0.665 10.51 0.624999 10.265 0.624999 10C0.624342 8.76867 0.866386 7.54929 1.33729 6.41157C1.8082 5.27384 2.49873 4.24009 3.36941 3.36941C4.24009 2.49873 5.27384 1.8082 6.41156 1.33729C7.54929 0.866385 8.76867 0.624342 10 0.624999V0.624999Z" fill="#FFF48C"/>
<path d="M19.375 10C19.375 12.4864 18.3873 14.871 16.6291 16.6291C14.871 18.3873 12.4864 19.375 10 19.375C7.5136 19.375 5.12903 18.3873 3.37087 16.6291C1.61272 14.871 0.625 12.4864 0.625 10C0.625 7.5136 1.61272 5.12903 3.37087 3.37087C5.12903 1.61272 7.5136 0.625 10 0.625C12.4864 0.625 14.871 1.61272 16.6291 3.37087C18.3873 5.12903 19.375 7.5136 19.375 10V10Z" stroke="#45413C" stroke-width="0.5" stroke-linecap="round" stroke-linejoin="round"/>
<path d="M3.065 7.37C3.68 7.82 4.69 7.485 5.315 6.625C5.94 5.765 5.955 4.705 5.315 4.255C4.675 3.805 3.695 4.14 3.065 5C2.435 5.86 2.45 6.92 3.065 7.37Z" fill="#FFF48C"/>
<path d="M5.34 5.41C4.725 4.96 3.72 5.295 3.09 6.155C2.9203 6.38443 2.79172 6.64158 2.71 6.915C2.61483 6.59119 2.59969 6.24912 2.66588 5.91818C2.73207 5.58723 2.87761 5.27729 3.09 5.015C3.72 4.155 4.725 3.82 5.34 4.27C5.55998 4.46761 5.71253 4.72918 5.7762 5.01796C5.83988 5.30673 5.81148 5.6082 5.695 5.88C5.62654 5.69125 5.50284 5.52747 5.34 5.41Z" fill="#EBCB00"/>
<path d="M3.065 7.39C3.68 7.835 4.69 7.505 5.315 6.64C5.94 5.775 5.955 4.72 5.315 4.27C4.675 3.82 3.695 4.155 3.065 5.015C2.435 5.875 2.45 6.94 3.065 7.39Z" stroke="#45413C" stroke-width="0.5" stroke-linecap="round" stroke-linejoin="round"/>
<path d="M17.285 8.445C16.855 8.61 16.285 8.22 16.065 7.58C15.845 6.94 15.97 6.29 16.4 6.125C16.83 5.96 17.37 6.35 17.615 7C17.86 7.65 17.71 8.28 17.285 8.445Z" fill="#87898C"/>
<path d="M17.615 7.815C17.37 7.175 16.825 6.79 16.4 6.95C16.3057 6.99142 16.2218 7.05329 16.1544 7.13111C16.0869 7.20894 16.0376 7.30078 16.01 7.4C15.855 6.825 16.01 6.275 16.4 6.125C16.79 5.975 17.37 6.35 17.615 7C17.742 7.31839 17.7613 7.6696 17.67 8C17.65 7.935 17.635 7.875 17.615 7.815Z" fill="#525252"/>
<path d="M17.285 8.445C16.855 8.61 16.285 8.22 16.065 7.58C15.845 6.94 15.97 6.29 16.4 6.125C16.83 5.96 17.37 6.35 17.615 7C17.86 7.65 17.71 8.28 17.285 8.445Z" stroke="#45413C" stroke-width="0.5" stroke-linecap="round" stroke-linejoin="round"/>
<path d="M10.06 17.245C10.235 17.905 11.21 18.245 12.245 17.955C13.28 17.665 13.97 16.955 13.8 16.27C13.63 15.585 12.65 15.27 11.615 15.555C10.58 15.84 9.89 16.58 10.06 17.245Z" fill="#87898C"/>
<path d="M11.615 16.35C11.3074 16.4138 11.0169 16.5422 10.7627 16.7267C10.5084 16.9111 10.2962 17.1474 10.14 17.42C10.1079 17.365 10.0827 17.3062 10.065 17.245C9.89 16.58 10.565 15.825 11.615 15.555C12.665 15.285 13.615 15.605 13.8 16.27C13.8453 16.4781 13.817 16.6954 13.72 16.885C13.43 16.345 12.55 16.105 11.615 16.35Z" fill="#525252"/>
<path d="M10.06 17.245C10.235 17.905 11.21 18.245 12.245 17.955C13.28 17.665 13.97 16.955 13.8 16.27C13.63 15.585 12.65 15.27 11.615 15.555C10.58 15.84 9.89 16.58 10.06 17.245Z" stroke="#45413C" stroke-width="0.5" stroke-linecap="round" stroke-linejoin="round"/>
<path d="M4.21 11.515C4.21 11.7709 4.10833 12.0164 3.92736 12.1974C3.74639 12.3783 3.50093 12.48 3.245 12.48C2.98907 12.48 2.74361 12.3783 2.56264 12.1974C2.38167 12.0164 2.28 11.7709 2.28 11.515C2.28 11.2591 2.38167 11.0136 2.56264 10.8326C2.74361 10.6517 2.98907 10.55 3.245 10.55C3.50093 10.55 3.74639 10.6517 3.92736 10.8326C4.10833 11.0136 4.21 11.2591 4.21 11.515V11.515Z" fill="#FFF48C"/>
<path d="M3.245 11.275C3.05249 11.2751 2.8644 11.3327 2.70491 11.4405C2.54542 11.5483 2.42182 11.7014 2.35 11.88C2.30406 11.7638 2.28032 11.64 2.28 11.515C2.28 11.2591 2.38167 11.0136 2.56264 10.8326C2.74361 10.6517 2.98907 10.55 3.245 10.55C3.50093 10.55 3.74639 10.6517 3.92736 10.8326C4.10833 11.0136 4.21 11.2591 4.21 11.515C4.20968 11.64 4.18594 11.7638 4.14 11.88C4.06818 11.7014 3.94458 11.5483 3.78509 11.4405C3.6256 11.3327 3.43751 11.2751 3.245 11.275V11.275Z" fill="#EBCB00"/>
<path d="M4.21 11.515C4.21 11.7709 4.10833 12.0164 3.92736 12.1974C3.74639 12.3783 3.50093 12.48 3.245 12.48C2.98907 12.48 2.74361 12.3783 2.56264 12.1974C2.38167 12.0164 2.28 11.7709 2.28 11.515C2.28 11.2591 2.38167 11.0136 2.56264 10.8326C2.74361 10.6517 2.98907 10.55 3.245 10.55C3.50093 10.55 3.74639 10.6517 3.92736 10.8326C4.10833 11.0136 4.21 11.2591 4.21 11.515V11.515Z" stroke="#45413C" stroke-width="0.5" stroke-linecap="round" stroke-linejoin="round"/>
<path d="M14.965 10.69C14.965 10.9459 14.8633 11.1914 14.6824 11.3724C14.5014 11.5533 14.2559 11.655 14 11.655C13.7441 11.655 13.4986 11.5533 13.3176 11.3724C13.1367 11.1914 13.035 10.9459 13.035 10.69C13.035 10.4341 13.1367 10.1886 13.3176 10.0076C13.4986 9.82667 13.7441 9.725 14 9.725C14.2559 9.725 14.5014 9.82667 14.6824 10.0076C14.8633 10.1886 14.965 10.4341 14.965 10.69V10.69Z" fill="#87898C"/>
<path d="M14 10.415C13.8046 10.4138 13.6135 10.4727 13.4525 10.5835C13.2916 10.6944 13.1686 10.852 13.1 11.035C13.0582 10.9247 13.0362 10.8079 13.035 10.69C13.035 10.4341 13.1367 10.1886 13.3176 10.0076C13.4986 9.82667 13.7441 9.725 14 9.725C14.2559 9.725 14.5014 9.82667 14.6824 10.0076C14.8633 10.1886 14.965 10.4341 14.965 10.69C14.9645 10.8085 14.9407 10.9257 14.895 11.035C14.8274 10.8524 14.7052 10.695 14.5451 10.5841C14.385 10.4732 14.1947 10.4141 14 10.415Z" fill="#525252"/>
<path d="M14.965 10.69C14.965 10.9459 14.8633 11.1914 14.6824 11.3724C14.5014 11.5533 14.2559 11.655 14 11.655C13.7441 11.655 13.4986 11.5533 13.3176 11.3724C13.1367 11.1914 13.035 10.9459 13.035 10.69C13.035 10.4341 13.1367 10.1886 13.3176 10.0076C13.4986 9.82667 13.7441 9.725 14 9.725C14.2559 9.725 14.5014 9.82667 14.6824 10.0076C14.8633 10.1886 14.965 10.4341 14.965 10.69V10.69Z" stroke="#45413C" stroke-width="0.5" stroke-linecap="round" stroke-linejoin="round"/>
<path d="M14.135 5.31C14.135 5.74893 13.9606 6.16989 13.6503 6.48026C13.3399 6.79063 12.9189 6.965 12.48 6.965C12.0411 6.965 11.6201 6.79063 11.3097 6.48026C10.9994 6.16989 10.825 5.74893 10.825 5.31C10.825 4.87107 10.9994 4.45011 11.3097 4.13974C11.6201 3.82936 12.0411 3.655 12.48 3.655C12.9189 3.655 13.3399 3.82936 13.6503 4.13974C13.9606 4.45011 14.135 4.87107 14.135 5.31V5.31Z" fill="#87898C"/>
<path d="M12.5 4.69C12.153 4.69117 11.8152 4.80207 11.535 5.00683C11.2548 5.21159 11.0465 5.49972 10.94 5.83C10.8823 5.66936 10.8502 5.50062 10.845 5.33C10.845 4.89107 11.0194 4.47011 11.3297 4.15974C11.6401 3.84936 12.0611 3.675 12.5 3.675C12.9389 3.675 13.3599 3.84936 13.6703 4.15974C13.9806 4.47011 14.155 4.89107 14.155 5.33C14.1515 5.50036 14.1211 5.6691 14.065 5.83C13.9575 5.49932 13.7483 5.21104 13.4673 5.00632C13.1862 4.80159 12.8477 4.69089 12.5 4.69V4.69Z" fill="#525252"/>
<path d="M14.12 5.31C14.12 5.74893 13.9456 6.16989 13.6353 6.48026C13.3249 6.79063 12.9039 6.965 12.465 6.965C12.0261 6.965 11.6051 6.79063 11.2947 6.48026C10.9844 6.16989 10.81 5.74893 10.81 5.31C10.81 4.87107 10.9844 4.45011 11.2947 4.13974C11.6051 3.82936 12.0261 3.655 12.465 3.655C12.9039 3.655 13.3249 3.82936 13.6353 4.13974C13.9456 4.45011 14.12 4.87107 14.12 5.31V5.31Z" stroke="#45413C" stroke-width="0.5" stroke-linecap="round" stroke-linejoin="round"/>
<path d="M9.725 13.035C9.725 13.401 9.57961 13.752 9.32081 14.0108C9.06201 14.2696 8.711 14.415 8.345 14.415C7.979 14.415 7.62799 14.2696 7.36919 14.0108C7.11039 13.752 6.965 13.401 6.965 13.035C6.965 12.669 7.11039 12.318 7.36919 12.0592C7.62799 11.8004 7.979 11.655 8.345 11.655C8.711 11.655 9.06201 11.8004 9.32081 12.0592C9.57961 12.318 9.725 12.669 9.725 13.035V13.035Z" fill="#87898C"/>
<path d="M8.345 12.5C8.05276 12.5021 7.76866 12.5965 7.53336 12.7699C7.29806 12.9432 7.12362 13.1865 7.035 13.465C6.96631 13.2576 6.94783 13.0369 6.98108 12.821C7.01432 12.6051 7.09835 12.4002 7.22624 12.2231C7.35414 12.046 7.52224 11.9018 7.71674 11.8024C7.91123 11.7029 8.12656 11.6511 8.345 11.6511C8.56345 11.6511 8.77877 11.7029 8.97326 11.8024C9.16776 11.9018 9.33586 12.046 9.46376 12.2231C9.59165 12.4002 9.67568 12.6051 9.70892 12.821C9.74217 13.0369 9.72369 13.2576 9.655 13.465C9.56706 13.1861 9.3928 12.9423 9.15735 12.7689C8.9219 12.5955 8.63743 12.5013 8.345 12.5Z" fill="#525252"/>
<path d="M9.725 13.035C9.725 13.401 9.57961 13.752 9.32081 14.0108C9.06201 14.2696 8.711 14.415 8.345 14.415C7.979 14.415 7.62799 14.2696 7.36919 14.0108C7.11039 13.752 6.965 13.401 6.965 13.035C6.965 12.669 7.11039 12.318 7.36919 12.0592C7.62799 11.8004 7.979 11.655 8.345 11.655C8.711 11.655 9.06201 11.8004 9.32081 12.0592C9.57961 12.318 9.725 12.669 9.725 13.035V13.035Z" stroke="#45413C" stroke-width="0.5" stroke-linecap="round" stroke-linejoin="round"/>
</g>
<defs>
<clipPath id="clip0_103_114">
<rect width="20" height="20" fill="white" transform="matrix(-1 0 0 1 20 0)"/>
</clipPath>
</defs>
</svg>
