<?xml version="1.0" encoding="UTF-8"?>
<svg width="221px" height="221px" viewBox="0 0 221 221" version="1.1" xmlns="http://www.w3.org/2000/svg" xmlns:xlink="http://www.w3.org/1999/xlink">
    <title>azkar-gold-logo</title>
    <g id="azkar-gold-logo" stroke="none" stroke-width="1" fill="none" fill-rule="evenodd">
        <rect fill="#FFFFFF" x="0" y="0" width="221" height="221"></rect>
        <g id="miscellaneous" transform="translate(20.6286, 14.6357)" fill-rule="nonzero">
            <path d="M122.181647,48.1211083 C113.621534,48.1211083 106.657813,41.156687 106.657813,32.5969241 C106.657813,32.0580189 106.221223,31.6214286 105.682318,31.6214286 C105.143413,31.6214286 104.706822,32.0580189 104.706822,32.5969241 C104.706822,41.1573878 97.7424012,48.1211083 89.1826384,48.1211083 C88.6437332,48.1211083 88.2071429,48.5576986 88.2071429,49.0966038 C88.2071429,49.635509 88.6437332,50.0720993 89.1826384,50.0720993 C97.7427516,50.0720993 104.706822,57.0365206 104.706822,65.5959331 C104.706822,66.1348383 105.143413,66.5714286 105.682318,66.5714286 C106.221223,66.5714286 106.657813,66.1348383 106.657813,65.5959331 C106.657813,57.0358198 113.622235,50.0720993 122.181647,50.0720993 C122.720552,50.0720993 123.157143,49.635509 123.157143,49.0966038 C123.157493,48.5576986 122.720202,48.1211083 122.181647,48.1211083 Z" id="Path" fill="#F29F26"></path>
            <path d="M105.034076,49.097655 C107.427484,46.9296835 109.15555,43.9911657 109.842519,40.6531833 C108.461486,38.3033502 107.664696,35.544942 107.664696,32.5969632 C107.664696,32.0580364 107.243662,31.6214286 106.723958,31.6214286 C106.204254,31.6214286 105.78322,32.0580364 105.78322,32.5969632 C105.78322,38.114831 102.990065,42.966574 98.7952642,45.7200766 C98.228591,46.091859 97.6358988,46.425447 97.0212426,46.7176869 C96.9986027,46.7281991 96.9759628,46.7387113 96.9536608,46.749574 C96.3515072,47.0320025 95.7284032,47.2741341 95.0873901,47.4731656 C95.043124,47.4868315 94.9981821,47.4994461 94.953916,47.5124112 C94.6822373,47.5940562 94.4071795,47.6669409 94.1290805,47.7324672 C94.0733255,47.7457826 94.0179084,47.7601494 93.9624914,47.772764 C93.6502636,47.8424951 93.3346567,47.9027652 93.0156707,47.9518223 C92.9605916,47.9598817 92.9051745,47.9658386 92.8500954,47.9735476 C92.5875402,48.0110412 92.3219438,48.0408258 92.0553337,48.0632519 C91.9637604,48.0709609 91.8721871,48.0790202 91.7802758,48.0849772 C91.4721029,48.1056512 91.1615647,48.1193171 90.8483231,48.1200179 C90.8361584,48.1200179 90.8243316,48.1207187 90.8121669,48.1207187 C90.292463,48.1207187 89.8714286,48.5573265 89.8714286,49.0962534 L89.8714286,49.0962534 L89.8714286,49.0962534 C89.8714286,49.6351802 90.292463,50.071788 90.8121669,50.071788 C90.8243316,50.071788 90.8361584,50.0724888 90.8483231,50.0724888 C91.1615647,50.0731896 91.4714271,50.0868555 91.7802758,50.1075296 C91.8721871,50.1138369 91.9640983,50.1215459 92.0553337,50.1292548 C92.3222817,50.1523817 92.5875402,50.181816 92.8500954,50.2189592 C92.9051745,50.2266681 92.9605916,50.2326251 93.0156707,50.2406844 C93.3346567,50.2897415 93.6502636,50.3500116 93.9624914,50.4197427 C94.0185843,50.4323574 94.0736634,50.4467241 94.1290805,50.4600396 C94.4068416,50.5255658 94.6815615,50.5984506 94.9532402,50.6800955 C94.9981821,50.693411 95.0434619,50.7060257 95.0880659,50.720042 C95.729079,50.9190735 96.3518451,51.1612051 96.9539987,51.4436336 C96.9766386,51.4541458 96.9992785,51.464658 97.0215805,51.4751703 C97.6362367,51.7674102 98.2289289,52.1002973 98.7956021,52.4727806 C102.990403,55.226984 105.783558,60.0780262 105.783558,65.5958939 C105.783558,66.1348208 106.204592,66.5714286 106.724296,66.5714286 C107.244,66.5714286 107.665034,66.1348208 107.665034,65.5958939 C107.665034,62.6479152 108.461824,59.8898573 109.842857,57.5396738 C109.155888,54.2044947 107.427822,51.2656265 105.034076,49.097655 Z" id="Path" fill="#EF8229"></path>
            <g id="Group" transform="translate(8.4437, 75.0796)" fill="#F29F26">
                <ellipse id="Oval" cx="126.324819" cy="6.57670022" rx="6.6069069" ry="6.57670022"></ellipse>
                <ellipse id="Oval" cx="6.6069069" cy="82.9114634" rx="6.6069069" ry="6.57670022"></ellipse>
            </g>
            <path d="M103.488505,123.787073 C73.7312323,113.944073 52.200754,85.8637775 52.200754,52.8501895 C52.200754,36.3244933 57.4926777,20.6613602 67.5028691,7.55678278 C68.812844,5.84171463 68.7868318,3.4562265 67.4407867,1.76925147 C66.0947416,0.0826232656 63.7734121,-0.471955902 61.8113979,0.427024212 C46.5685906,7.39828205 33.6439913,18.5124093 24.4353227,32.566257 C14.9817925,46.9936392 9.98571429,63.7739077 9.98571429,81.0938417 C9.98571429,129.982822 49.7601152,169.757143 98.6491939,169.757143 C115.96951,169.757143 132.749812,164.760381 147.177223,155.307564 C161.231099,146.098913 172.344902,133.17434 179.316521,117.931217 C180.214115,115.968513 179.660575,113.647535 177.974291,112.301146 C176.287659,110.95545 173.901472,110.929785 172.186748,112.23941 C159.082144,122.250275 143.419673,127.541494 126.89325,127.541494 C122.321691,127.541494 117.844123,127.128421 113.496269,126.338692" id="Path" fill="#EDE21B"></path>
            <path d="M154.844014,147.099721 C140.294305,156.614407 123.372518,161.643339 105.905802,161.643339 C56.6034888,161.643339 16.4928952,121.610165 16.4928952,72.4030129 C16.4928952,54.97036 21.5315525,38.0805357 31.0646388,23.5596085 C33.4384668,19.9437765 36.0581769,16.5230835 38.8978866,13.3142857 C32.7886109,18.6462241 27.3987936,24.8100343 22.8931721,31.6734127 C13.359736,46.194689 8.32142857,63.0841642 8.32142857,80.5168171 C8.32142857,129.723969 48.4320222,169.757143 97.7343353,169.757143 C115.201051,169.757143 132.123188,164.727862 146.672547,155.213525 C153.419088,150.801079 159.492338,145.540005 164.764286,139.584599 C161.649314,142.302233 158.337077,144.815303 154.844014,147.099721 Z" id="Path" fill="#EAC71C"></path>
            <g id="Group" transform="translate(0, 21.8758)" fill="#EDE21B">
                <ellipse id="Oval" cx="105.792874" cy="63.9676687" rx="3.90137459" ry="3.88736292"></ellipse>
                <ellipse id="Oval" cx="3.90137459" cy="110.641775" rx="3.90137459" ry="3.88736292"></ellipse>
                <ellipse id="Oval" cx="130.810425" cy="3.88736292" rx="3.90137459" ry="3.88736292"></ellipse>
            </g>
        </g>
    </g>
</svg>