<svg width="20" height="20" viewBox="0 0 20 20" fill="none" xmlns="http://www.w3.org/2000/svg">
<g clip-path="url(#clip0_102_2)">
<path d="M0.315 10C0.315 11.2719 0.56551 12.5313 1.05223 13.7063C1.53894 14.8813 2.25234 15.949 3.15167 16.8483C4.05101 17.7477 5.11867 18.4611 6.29371 18.9478C7.46875 19.4345 8.72815 19.685 10 19.685C11.2719 19.685 12.5313 19.4345 13.7063 18.9478C14.8813 18.4611 15.949 17.7477 16.8483 16.8483C17.7477 15.949 18.4611 14.8813 18.9478 13.7063C19.4345 12.5313 19.685 11.2719 19.685 10C19.685 8.72815 19.4345 7.46875 18.9478 6.29371C18.4611 5.11867 17.7477 4.05101 16.8483 3.15167C15.949 2.25233 14.8813 1.53894 13.7063 1.05223C12.5313 0.565509 11.2719 0.315 10 0.315C8.72815 0.315 7.46875 0.565509 6.29371 1.05223C5.11867 1.53894 4.05101 2.25233 3.15167 3.15167C2.25234 4.05101 1.53894 5.11867 1.05223 6.29371C0.56551 7.46875 0.315 8.72815 0.315 10Z" fill="#656769"/>
<path d="M10 2.595C12.3702 2.59579 14.6577 3.46616 16.429 5.04112C18.2002 6.61607 19.3321 8.78615 19.61 11.14C19.6577 10.7618 19.6827 10.3812 19.685 10C19.685 7.43138 18.6646 4.96796 16.8483 3.15167C15.032 1.33538 12.5686 0.315001 10 0.315001C7.43138 0.315001 4.96796 1.33538 3.15167 3.15167C1.33538 4.96796 0.315 7.43138 0.315 10C0.317252 10.3812 0.342296 10.7618 0.39 11.14C0.66791 8.78615 1.79977 6.61607 3.57102 5.04112C5.34227 3.46616 7.62981 2.59579 10 2.595Z" fill="#87898C"/>
<path d="M0.315 10C0.315 11.2719 0.56551 12.5313 1.05223 13.7063C1.53894 14.8813 2.25234 15.949 3.15167 16.8483C4.05101 17.7477 5.11867 18.4611 6.29371 18.9478C7.46875 19.4345 8.72815 19.685 10 19.685C11.2719 19.685 12.5313 19.4345 13.7063 18.9478C14.8813 18.4611 15.949 17.7477 16.8483 16.8483C17.7477 15.949 18.4611 14.8813 18.9478 13.7063C19.4345 12.5313 19.685 11.2719 19.685 10C19.685 8.72815 19.4345 7.46875 18.9478 6.29371C18.4611 5.11867 17.7477 4.05101 16.8483 3.15167C15.949 2.25233 14.8813 1.53894 13.7063 1.05223C12.5313 0.565509 11.2719 0.315 10 0.315C8.72815 0.315 7.46875 0.565509 6.29371 1.05223C5.11867 1.53894 4.05101 2.25233 3.15167 3.15167C2.25234 4.05101 1.53894 5.11867 1.05223 6.29371C0.56551 7.46875 0.315 8.72815 0.315 10V10Z" stroke="#45413C" stroke-width="0.5" stroke-linecap="round" stroke-linejoin="round"/>
<path d="M17.165 7.285C16.53 7.75 15.485 7.405 14.84 6.515C14.195 5.625 14.175 4.515 14.81 4.065C15.445 3.615 16.49 3.945 17.14 4.835C17.79 5.725 17.8 6.82 17.165 7.285Z" fill="#87898C"/>
<path d="M14.81 5.255C15.445 4.79 16.49 5.135 17.14 6.025C17.3113 6.26404 17.443 6.5291 17.53 6.81C17.6294 6.47622 17.6458 6.12324 17.5778 5.78168C17.5099 5.44012 17.3596 5.12031 17.14 4.85C16.49 3.96 15.445 3.615 14.81 4.08C14.5874 4.28769 14.4332 4.55821 14.368 4.85562C14.3028 5.15302 14.3297 5.46322 14.445 5.745C14.5203 5.55174 14.6464 5.38243 14.81 5.255Z" fill="#525252"/>
<path d="M17.165 7.3C16.53 7.765 15.485 7.42 14.84 6.53C14.195 5.64 14.175 4.53 14.81 4.08C15.445 3.63 16.49 3.96 17.14 4.85C17.79 5.74 17.8 6.84 17.165 7.3Z" stroke="#45413C" stroke-width="0.5" stroke-linecap="round" stroke-linejoin="round"/>
<path d="M2.5 8.395C2.945 8.56 3.5 8.16 3.755 7.5C4.01 6.84 3.855 6.165 3.415 6C2.975 5.835 2.415 6.23 2.16 6.89C1.905 7.55 2.035 8.225 2.5 8.395Z" fill="#87898C"/>
<path d="M2.135 7.745C2.39 7.08 2.95 6.68 3.39 6.85C3.48719 6.89268 3.57358 6.95661 3.6428 7.03708C3.71203 7.11755 3.76233 7.21252 3.79 7.315C3.95 6.72 3.79 6.15 3.39 6C2.99 5.85 2.39 6.23 2.135 6.89C2.00158 7.22092 1.98222 7.58686 2.08 7.93C2.09302 7.86688 2.11142 7.80499 2.135 7.745Z" fill="#525252"/>
<path d="M2.5 8.395C2.945 8.56 3.5 8.16 3.755 7.5C4.01 6.84 3.855 6.165 3.415 6C2.975 5.835 2.415 6.23 2.16 6.89C1.905 7.55 2.035 8.225 2.5 8.395Z" stroke="#45413C" stroke-width="0.5" stroke-linecap="round" stroke-linejoin="round"/>
<path d="M9.935 17.5C9.755 18.185 8.75 18.5 7.68 18.24C6.61 17.98 5.9 17.16 6.075 16.5C6.25 15.84 7.265 15.5 8.33 15.765C9.395 16.03 10.115 16.795 9.935 17.5Z" fill="#87898C"/>
<path d="M8.33 16.56C8.64812 16.6252 8.94867 16.7575 9.21163 16.9481C9.4746 17.1386 9.69392 17.383 9.855 17.665C9.88971 17.6071 9.91661 17.5449 9.935 17.48C10.115 16.795 9.395 16.015 8.33 15.74C7.265 15.465 6.255 15.79 6.075 16.475C6.027 16.6895 6.05529 16.9141 6.155 17.11C6.455 16.555 7.365 16.305 8.33 16.56Z" fill="#525252"/>
<path d="M9.935 17.5C9.755 18.185 8.75 18.5 7.68 18.24C6.61 17.98 5.9 17.16 6.075 16.5C6.25 15.84 7.265 15.5 8.33 15.765C9.395 16.03 10.115 16.795 9.935 17.5Z" stroke="#45413C" stroke-width="0.5" stroke-linecap="round" stroke-linejoin="round"/>
<path d="M15.985 11.565C15.985 11.8289 16.0898 12.082 16.2764 12.2686C16.463 12.4552 16.7161 12.56 16.98 12.56C17.2439 12.56 17.497 12.4552 17.6836 12.2686C17.8702 12.082 17.975 11.8289 17.975 11.565C17.975 11.3011 17.8702 11.048 17.6836 10.8614C17.497 10.6748 17.2439 10.57 16.98 10.57C16.7161 10.57 16.463 10.6748 16.2764 10.8614C16.0898 11.048 15.985 11.3011 15.985 11.565Z" fill="#87898C"/>
<path d="M17 11.315C17.198 11.3164 17.3911 11.3765 17.5549 11.4878C17.7187 11.5991 17.8458 11.7564 17.92 11.94C17.9707 11.8215 17.9962 11.6938 17.995 11.565C17.995 11.2998 17.8896 11.0454 17.7021 10.8579C17.5146 10.6704 17.2602 10.565 16.995 10.565C16.7298 10.565 16.4754 10.6704 16.2879 10.8579C16.1004 11.0454 15.995 11.2998 15.995 11.565C15.9956 11.6937 16.0211 11.821 16.07 11.94C16.1449 11.7549 16.2735 11.5964 16.4392 11.485C16.605 11.3736 16.8003 11.3144 17 11.315Z" fill="#525252"/>
<path d="M15.985 11.565C15.985 11.8289 16.0898 12.082 16.2764 12.2686C16.463 12.4552 16.7161 12.56 16.98 12.56C17.2439 12.56 17.497 12.4552 17.6836 12.2686C17.8702 12.082 17.975 11.8289 17.975 11.565C17.975 11.3011 17.8702 11.048 17.6836 10.8614C17.497 10.6748 17.2439 10.57 16.98 10.57C16.7161 10.57 16.463 10.6748 16.2764 10.8614C16.0898 11.048 15.985 11.3011 15.985 11.565V11.565Z" stroke="#45413C" stroke-width="0.5" stroke-linecap="round" stroke-linejoin="round"/>
<path d="M4.875 10.71C4.875 10.9739 4.97983 11.227 5.16643 11.4136C5.35303 11.6002 5.60611 11.705 5.87 11.705C6.13389 11.705 6.38697 11.6002 6.57357 11.4136C6.76017 11.227 6.865 10.9739 6.865 10.71C6.865 10.4461 6.76017 10.193 6.57357 10.0064C6.38697 9.81983 6.13389 9.715 5.87 9.715C5.60611 9.715 5.35303 9.81983 5.16643 10.0064C4.97983 10.193 4.875 10.4461 4.875 10.71Z" fill="#87898C"/>
<path d="M5.87 10.425C6.07203 10.426 6.26902 10.4881 6.43503 10.6033C6.60104 10.7184 6.72828 10.8811 6.8 11.07C6.84217 10.9546 6.86416 10.8328 6.865 10.71C6.865 10.4448 6.75964 10.1904 6.57211 10.0029C6.38457 9.81536 6.13022 9.71 5.865 9.71C5.59978 9.71 5.34543 9.81536 5.15789 10.0029C4.97036 10.1904 4.865 10.4448 4.865 10.71C4.86584 10.8328 4.88783 10.9546 4.93 11.07C5.00232 10.8795 5.1311 10.7157 5.29909 10.6004C5.46708 10.4852 5.66627 10.424 5.87 10.425Z" fill="#525252"/>
<path d="M4.875 10.71C4.875 10.9739 4.97983 11.227 5.16643 11.4136C5.35303 11.6002 5.60611 11.705 5.87 11.705C6.13389 11.705 6.38697 11.6002 6.57357 11.4136C6.76017 11.227 6.865 10.9739 6.865 10.71C6.865 10.4461 6.76017 10.193 6.57357 10.0064C6.38697 9.81983 6.13389 9.715 5.87 9.715C5.60611 9.715 5.35303 9.81983 5.16643 10.0064C4.97983 10.193 4.875 10.4461 4.875 10.71V10.71Z" stroke="#45413C" stroke-width="0.5" stroke-linecap="round" stroke-linejoin="round"/>
<path d="M5.725 5.16C5.725 5.61352 5.90516 6.04846 6.22585 6.36915C6.54653 6.68984 6.98148 6.87 7.435 6.87C7.88852 6.87 8.32347 6.68984 8.64415 6.36915C8.96484 6.04846 9.145 5.61352 9.145 5.16C9.145 4.70648 8.96484 4.27153 8.64415 3.95085C8.32347 3.63016 7.88852 3.45 7.435 3.45C6.98148 3.45 6.54653 3.63016 6.22585 3.95085C5.90516 4.27153 5.725 4.70648 5.725 5.16Z" fill="#87898C"/>
<path d="M7.435 4.5C7.79374 4.5004 8.14316 4.61428 8.43324 4.82533C8.72333 5.03638 8.93921 5.3338 9.05 5.675C9.11225 5.5052 9.14439 5.32585 9.145 5.145C9.145 4.69148 8.96484 4.25653 8.64415 3.93585C8.32347 3.61516 7.88852 3.435 7.435 3.435C6.98148 3.435 6.54653 3.61516 6.22585 3.93585C5.90516 4.25653 5.725 4.69148 5.725 5.145C5.72805 5.32562 5.76013 5.50457 5.82 5.675C5.93146 5.33421 6.14751 5.03723 6.43745 4.82628C6.72739 4.61533 7.07645 4.50116 7.435 4.5Z" fill="#525252"/>
<path d="M5.745 5.16C5.745 5.38456 5.78923 5.60692 5.87517 5.81439C5.9611 6.02185 6.08706 6.21036 6.24585 6.36915C6.40464 6.52794 6.59314 6.6539 6.80061 6.73983C7.00808 6.82577 7.23044 6.87 7.455 6.87C7.67956 6.87 7.90192 6.82577 8.10939 6.73983C8.31686 6.6539 8.50536 6.52794 8.66415 6.36915C8.82294 6.21036 8.9489 6.02185 9.03483 5.81439C9.12077 5.60692 9.165 5.38456 9.165 5.16C9.165 4.93544 9.12077 4.71308 9.03483 4.50561C8.9489 4.29814 8.82294 4.10963 8.66415 3.95085C8.50536 3.79206 8.31686 3.6661 8.10939 3.58016C7.90192 3.49423 7.67956 3.45 7.455 3.45C7.23044 3.45 7.00808 3.49423 6.80061 3.58016C6.59314 3.6661 6.40464 3.79206 6.24585 3.95085C6.08706 4.10963 5.9611 4.29814 5.87517 4.50561C5.78923 4.71308 5.745 4.93544 5.745 5.16V5.16Z" stroke="#45413C" stroke-width="0.5" stroke-linecap="round" stroke-linejoin="round"/>
<path d="M10.285 13.135C10.285 13.5129 10.4351 13.8754 10.7024 14.1426C10.9696 14.4099 11.3321 14.56 11.71 14.56C12.0879 14.56 12.4504 14.4099 12.7176 14.1426C12.9849 13.8754 13.135 13.5129 13.135 13.135C13.135 12.7571 12.9849 12.3946 12.7176 12.1274C12.4504 11.8601 12.0879 11.71 11.71 11.71C11.3321 11.71 10.9696 11.8601 10.7024 12.1274C10.4351 12.3946 10.285 12.7571 10.285 13.135Z" fill="#87898C"/>
<path d="M11.71 12.565C12.0123 12.5656 12.3065 12.663 12.5495 12.843C12.7924 13.0229 12.9713 13.276 13.06 13.565C13.108 13.4284 13.1333 13.2848 13.135 13.14C13.135 12.7621 12.9849 12.3996 12.7176 12.1324C12.4504 11.8651 12.0879 11.715 11.71 11.715C11.3321 11.715 10.9696 11.8651 10.7024 12.1324C10.4351 12.3996 10.285 12.7621 10.285 13.14C10.2878 13.2843 10.3113 13.4274 10.355 13.565C10.446 13.2764 10.6262 13.0241 10.8697 12.8444C11.1132 12.6647 11.4074 12.5669 11.71 12.565Z" fill="#525252"/>
<path d="M10.285 13.135C10.285 13.5129 10.4351 13.8754 10.7024 14.1426C10.9696 14.4099 11.3321 14.56 11.71 14.56C12.0879 14.56 12.4504 14.4099 12.7176 14.1426C12.9849 13.8754 13.135 13.5129 13.135 13.135C13.135 12.7571 12.9849 12.3946 12.7176 12.1274C12.4504 11.8601 12.0879 11.71 11.71 11.71C11.3321 11.71 10.9696 11.8601 10.7024 12.1274C10.4351 12.3946 10.285 12.7571 10.285 13.135V13.135Z" stroke="#45413C" stroke-width="0.5" stroke-linecap="round" stroke-linejoin="round"/>
</g>
<defs>
<clipPath id="clip0_102_2">
<rect width="20" height="20" fill="white"/>
</clipPath>
</defs>
</svg>
