<svg width="50" height="50" viewBox="0 0 50 50" fill="none" xmlns="http://www.w3.org/2000/svg">
<path d="M25.0126 6.36318C23.2529 6.36318 21.82 4.95473 21.82 3.19416C21.82 1.4336 23.2529 0 25.0126 0C26.7722 0 28.18 1.4336 28.18 3.19416C28.18 4.95473 26.7722 6.36318 25.0126 6.36318ZM40.4223 12.7515C38.6626 12.7515 37.2298 11.3179 37.2298 9.55734C37.2298 7.79678 38.6626 6.38833 40.4223 6.38833C42.182 6.38833 43.6149 7.79678 43.6149 9.55734C43.6149 11.3179 42.182 12.7515 40.4223 12.7515ZM9.57768 12.7515C7.818 12.7515 6.38512 11.3179 6.38512 9.55734C6.38512 7.79678 7.818 6.38833 9.57768 6.38833C11.3374 6.38833 12.7702 7.79678 12.7702 9.55734C12.7702 11.3179 11.3374 12.7515 9.57768 12.7515ZM25.0126 38.2545C17.7225 38.2545 11.7647 32.2938 11.7647 25C11.7647 17.7314 17.7476 11.7455 25.0126 11.7455C32.2524 11.7455 38.2604 17.7314 38.2604 25C38.2604 32.2435 32.2524 38.2545 25.0126 38.2545ZM46.8074 28.1942C45.0478 28.1942 43.6149 26.7606 43.6149 25C43.6149 23.2394 45.0478 21.8058 46.8074 21.8058C48.5671 21.8058 50 23.2394 50 25C50 26.7606 48.5671 28.1942 46.8074 28.1942ZM3.19256 28.1942C1.43288 28.1942 0 26.7606 0 25C0 23.2394 1.43288 21.8058 3.19256 21.8058C4.95224 21.8058 6.38512 23.2394 6.38512 25C6.38512 26.7606 4.95224 28.1942 3.19256 28.1942ZM40.4223 43.6117C38.6626 43.6117 37.2298 42.1781 37.2298 40.4175C37.2298 38.6569 38.6626 37.2233 40.4223 37.2233C42.182 37.2233 43.6149 38.6569 43.6149 40.4175C43.6149 42.1781 42.182 43.6117 40.4223 43.6117ZM9.57768 43.6117C7.818 43.6117 6.38512 42.1781 6.38512 40.4175C6.38512 38.6569 7.818 37.2233 9.57768 37.2233C11.3374 37.2233 12.7702 38.6569 12.7702 40.4175C12.7702 42.1781 11.3374 43.6117 9.57768 43.6117ZM25.0126 50C23.2529 50 21.82 48.5664 21.82 46.8058C21.82 45.0453 23.2529 43.6117 25.0126 43.6117C26.7722 43.6117 28.18 45.0453 28.18 46.8058C28.18 48.5664 26.7722 50 25.0126 50Z" fill="#FFEE93"/>
</svg>
