<svg width="20" height="20" viewBox="0 0 20 20" fill="none" xmlns="http://www.w3.org/2000/svg">
<g clip-path="url(#clip0_103_2)">
<path d="M0.370003 10C0.370003 11.2646 0.61909 12.5169 1.10304 13.6852C1.587 14.8536 2.29634 15.9152 3.19056 16.8094C4.08479 17.7037 5.1464 18.413 6.31476 18.897C7.48313 19.3809 8.73537 19.63 10 19.63C11.2646 19.63 12.5169 19.3809 13.6852 18.897C14.8536 18.413 15.9152 17.7037 16.8094 16.8094C17.7037 15.9152 18.413 14.8536 18.897 13.6852C19.3809 12.5169 19.63 11.2646 19.63 10C19.63 8.73537 19.3809 7.48312 18.897 6.31476C18.413 5.14639 17.7037 4.08479 16.8094 3.19056C15.9152 2.29633 14.8536 1.58699 13.6852 1.10304C12.5169 0.619087 11.2646 0.37 10 0.37C8.73537 0.37 7.48313 0.619087 6.31476 1.10304C5.1464 1.58699 4.08479 2.29633 3.19056 3.19056C2.29634 4.08479 1.587 5.14639 1.10304 6.31476C0.61909 7.48312 0.370003 8.73537 0.370003 10V10Z" fill="#FFE500"/>
<path d="M10 2.635C12.3572 2.63599 14.6321 3.50195 16.3933 5.06868C18.1545 6.6354 19.2795 8.79395 19.555 11.135C19.6027 10.7585 19.6277 10.3795 19.63 10C19.63 7.44597 18.6154 4.99654 16.8094 3.19056C15.0035 1.38459 12.554 0.37 10 0.37C7.44597 0.37 4.99654 1.38459 3.19056 3.19056C1.38459 4.99654 0.370003 7.44597 0.370003 10C0.37231 10.3795 0.397355 10.7585 0.445003 11.135C0.72052 8.79395 1.84554 6.6354 3.60673 5.06868C5.36791 3.50195 7.6428 2.63599 10 2.635V2.635Z" fill="#FFF48C"/>
<path d="M0.370003 10C0.370003 11.2646 0.61909 12.5169 1.10304 13.6852C1.587 14.8536 2.29634 15.9152 3.19056 16.8094C4.08479 17.7037 5.1464 18.413 6.31476 18.897C7.48313 19.3809 8.73537 19.63 10 19.63C11.2646 19.63 12.5169 19.3809 13.6852 18.897C14.8536 18.413 15.9152 17.7037 16.8094 16.8094C17.7037 15.9152 18.413 14.8536 18.897 13.6852C19.3809 12.5169 19.63 11.2646 19.63 10C19.63 8.73537 19.3809 7.48312 18.897 6.31476C18.413 5.14639 17.7037 4.08479 16.8094 3.19056C15.9152 2.29633 14.8536 1.58699 13.6852 1.10304C12.5169 0.619087 11.2646 0.37 10 0.37C8.73537 0.37 7.48313 0.619087 6.31476 1.10304C5.1464 1.58699 4.08479 2.29633 3.19056 3.19056C2.29634 4.08479 1.587 5.14639 1.10304 6.31476C0.61909 7.48312 0.370003 8.73537 0.370003 10V10Z" stroke="#45413C" stroke-width="0.5" stroke-linecap="round" stroke-linejoin="round"/>
<path d="M17.12 7.3C16.49 7.76 15.455 7.42 14.81 6.535C14.165 5.65 14.155 4.535 14.81 4.1C15.465 3.665 16.475 3.98 17.12 4.865C17.765 5.75 17.755 6.84 17.12 7.3Z" fill="#FFF48C"/>
<path d="M14.785 5.285C15.415 4.825 16.45 5.165 17.095 6.05C17.2744 6.28444 17.4114 6.5484 17.5 6.83C17.5994 6.49786 17.6158 6.1464 17.5478 5.80643C17.4798 5.46647 17.3295 5.14837 17.11 4.88C16.465 4 15.43 3.655 14.8 4.115C14.5745 4.3186 14.4182 4.58746 14.3528 4.88412C14.2874 5.18077 14.3161 5.49045 14.435 5.77C14.5017 5.57755 14.6234 5.40891 14.785 5.285V5.285Z" fill="#EBCB00"/>
<path d="M17.12 7.32C16.49 7.78 15.455 7.435 14.81 6.55C14.165 5.665 14.155 4.55 14.81 4.115C15.465 3.68 16.475 4 17.12 4.88C17.765 5.76 17.755 6.855 17.12 7.32Z" stroke="#45413C" stroke-width="0.5" stroke-linecap="round" stroke-linejoin="round"/>
<path d="M2.5 8.405C2.94 8.57 3.5 8.175 3.75 7.515C4 6.855 3.85 6.19 3.41 6.015C2.97 5.84 2.41 6.245 2.16 6.905C1.91 7.565 2.08 8.235 2.5 8.405Z" fill="#FFF48C"/>
<path d="M2.18 7.755C2.43 7.1 2.99 6.7 3.43 6.87C3.52673 6.91122 3.61267 6.97415 3.68117 7.05392C3.74967 7.13369 3.79888 7.22815 3.825 7.33C3.985 6.74 3.825 6.175 3.43 6.02C3.035 5.865 2.43 6.25 2.18 6.91C2.04658 7.23743 2.0272 7.60023 2.125 7.94C2.14 7.88 2.16 7.82 2.18 7.755Z" fill="#EBCB00"/>
<path d="M2.5 8.405C2.94 8.57 3.5 8.175 3.75 7.515C4 6.855 3.85 6.19 3.41 6.015C2.97 5.84 2.41 6.245 2.16 6.905C1.91 7.565 2.08 8.235 2.5 8.405Z" stroke="#45413C" stroke-width="0.5" stroke-linecap="round" stroke-linejoin="round"/>
<path d="M9.935 17.44C9.76 18.12 8.755 18.44 7.695 18.17C6.635 17.9 5.92 17.12 6.1 16.435C6.28 15.75 7.28 15.435 8.34 15.705C9.4 15.975 10.115 16.76 9.935 17.44Z" fill="#FFF48C"/>
<path d="M8.34 16.5C8.65353 16.567 8.9493 16.6997 9.20785 16.8893C9.46639 17.0789 9.68184 17.3211 9.84 17.6C9.8758 17.5445 9.90278 17.4838 9.92 17.42C10.1 16.74 9.385 15.96 8.325 15.685C7.265 15.41 6.26 15.735 6.085 16.415C6.037 16.6295 6.06529 16.8541 6.165 17.05C6.5 16.5 7.38 16.27 8.34 16.5Z" fill="#EBCB00"/>
<path d="M9.935 17.44C9.76 18.12 8.755 18.44 7.695 18.17C6.635 17.9 5.92 17.12 6.1 16.435C6.28 15.75 7.28 15.435 8.34 15.705C9.4 15.975 10.115 16.76 9.935 17.44Z" stroke="#45413C" stroke-width="0.5" stroke-linecap="round" stroke-linejoin="round"/>
<path d="M15.95 11.56C15.95 11.8226 16.0543 12.0744 16.24 12.26C16.4256 12.4457 16.6774 12.55 16.94 12.55C17.2026 12.55 17.4544 12.4457 17.64 12.26C17.8257 12.0744 17.93 11.8226 17.93 11.56C17.93 11.2974 17.8257 11.0456 17.64 10.86C17.4544 10.6743 17.2026 10.57 16.94 10.57C16.6774 10.57 16.4256 10.6743 16.24 10.86C16.0543 11.0456 15.95 11.2974 15.95 11.56V11.56Z" fill="#FFF48C"/>
<path d="M16.94 11.31C17.1366 11.312 17.3282 11.3718 17.4909 11.4821C17.6537 11.5924 17.7803 11.7482 17.855 11.93C17.9033 11.8125 17.9287 11.687 17.93 11.56C17.93 11.2948 17.8246 11.0404 17.6371 10.8529C17.4496 10.6654 17.1952 10.56 16.93 10.56C16.6648 10.56 16.4104 10.6654 16.2229 10.8529C16.0354 11.0404 15.93 11.2948 15.93 11.56C15.9313 11.687 15.9567 11.8125 16.005 11.93C16.081 11.745 16.2107 11.5871 16.3774 11.4765C16.544 11.366 16.74 11.308 16.94 11.31V11.31Z" fill="#EBCB00"/>
<path d="M15.95 11.56C15.95 11.8226 16.0543 12.0744 16.24 12.26C16.4256 12.4457 16.6774 12.55 16.94 12.55C17.2026 12.55 17.4544 12.4457 17.64 12.26C17.8257 12.0744 17.93 11.8226 17.93 11.56C17.93 11.2974 17.8257 11.0456 17.64 10.86C17.4544 10.6743 17.2026 10.57 16.94 10.57C16.6774 10.57 16.4256 10.6743 16.24 10.86C16.0543 11.0456 15.95 11.2974 15.95 11.56V11.56Z" stroke="#45413C" stroke-width="0.5" stroke-linecap="round" stroke-linejoin="round"/>
<path d="M4.90501 10.71C4.90501 10.9726 5.00931 11.2244 5.19497 11.41C5.38063 11.5957 5.63244 11.7 5.89501 11.7C6.15757 11.7 6.40938 11.5957 6.59504 11.41C6.7807 11.2244 6.88501 10.9726 6.88501 10.71C6.88501 10.4474 6.7807 10.1956 6.59504 10.01C6.40938 9.8243 6.15757 9.72 5.89501 9.72C5.63244 9.72 5.38063 9.8243 5.19497 10.01C5.00931 10.1956 4.90501 10.4474 4.90501 10.71Z" fill="#FFF48C"/>
<path d="M5.895 10.425C6.09415 10.4272 6.28811 10.4888 6.45202 10.6019C6.61593 10.7151 6.74232 10.8746 6.815 11.06C6.86121 10.9491 6.885 10.8301 6.885 10.71C6.885 10.4448 6.77965 10.1904 6.59211 10.0029C6.40457 9.81536 6.15022 9.71 5.885 9.71C5.61979 9.71 5.36543 9.81536 5.1779 10.0029C4.99036 10.1904 4.885 10.4448 4.885 10.71C4.88556 10.8296 4.90758 10.9482 4.95 11.06C5.02423 10.8706 5.15446 10.7083 5.32331 10.5949C5.49216 10.4814 5.69159 10.4222 5.895 10.425Z" fill="#EBCB00"/>
<path d="M4.90501 10.71C4.90501 10.9726 5.00931 11.2244 5.19497 11.41C5.38063 11.5957 5.63244 11.7 5.89501 11.7C6.15757 11.7 6.40938 11.5957 6.59504 11.41C6.7807 11.2244 6.88501 10.9726 6.88501 10.71C6.88501 10.4474 6.7807 10.1956 6.59504 10.01C6.40938 9.8243 6.15757 9.72 5.89501 9.72C5.63244 9.72 5.38063 9.8243 5.19497 10.01C5.00931 10.1956 4.90501 10.4474 4.90501 10.71Z" stroke="#45413C" stroke-width="0.5" stroke-linecap="round" stroke-linejoin="round"/>
<path d="M5.75 5.185C5.75 5.63587 5.92911 6.06827 6.24792 6.38708C6.56673 6.70589 6.99913 6.885 7.45 6.885C7.90087 6.885 8.33327 6.70589 8.65208 6.38708C8.97089 6.06827 9.15 5.63587 9.15 5.185C9.15 4.73413 8.97089 4.30173 8.65208 3.98292C8.33327 3.66411 7.90087 3.485 7.45 3.485C6.99913 3.485 6.56673 3.66411 6.24792 3.98292C5.92911 4.30173 5.75 4.73413 5.75 5.185V5.185Z" fill="#FFF48C"/>
<path d="M7.45 4.55C7.80684 4.55 8.15456 4.66262 8.44365 4.8718C8.73273 5.08098 8.94843 5.37606 9.06001 5.715C9.14419 5.46095 9.16665 5.19051 9.12553 4.92606C9.08441 4.6616 8.98088 4.41075 8.82353 4.19426C8.66617 3.97778 8.45951 3.80189 8.22066 3.68116C7.98181 3.56043 7.71763 3.49833 7.45 3.5C7.18026 3.49602 6.91355 3.55726 6.67256 3.6785C6.43156 3.79974 6.22342 3.97739 6.06583 4.19635C5.90824 4.41531 5.80586 4.66909 5.76742 4.93611C5.72897 5.20312 5.75559 5.47548 5.845 5.73C5.95372 5.38907 6.16755 5.0913 6.45586 4.87933C6.74417 4.66737 7.09217 4.55209 7.45 4.55V4.55Z" fill="#EBCB00"/>
<path d="M5.77 5.185C5.77 5.63587 5.94911 6.06827 6.26792 6.38708C6.58673 6.70589 7.01914 6.885 7.47 6.885C7.92087 6.885 8.35327 6.70589 8.67209 6.38708C8.9909 6.06827 9.17 5.63587 9.17 5.185C9.17 4.73413 8.9909 4.30173 8.67209 3.98292C8.35327 3.66411 7.92087 3.485 7.47 3.485C7.01914 3.485 6.58673 3.66411 6.26792 3.98292C5.94911 4.30173 5.77 4.73413 5.77 5.185V5.185Z" stroke="#45413C" stroke-width="0.5" stroke-linecap="round" stroke-linejoin="round"/>
<path d="M10.285 13.115C10.285 13.4903 10.4341 13.8502 10.6994 14.1156C10.9648 14.3809 11.3247 14.53 11.7 14.53C12.0753 14.53 12.4352 14.3809 12.7006 14.1156C12.9659 13.8502 13.115 13.4903 13.115 13.115C13.115 12.7397 12.9659 12.3798 12.7006 12.1144C12.4352 11.8491 12.0753 11.7 11.7 11.7C11.3247 11.7 10.9648 11.8491 10.6994 12.1144C10.4341 12.3798 10.285 12.7397 10.285 13.115Z" fill="#FFF48C"/>
<path d="M11.7 12.55C12.0015 12.5517 12.2945 12.6496 12.5365 12.8294C12.7784 13.0093 12.9566 13.2618 13.045 13.55C13.0887 13.4124 13.1122 13.2693 13.115 13.125C13.115 12.7497 12.9659 12.3898 12.7006 12.1244C12.4352 11.8591 12.0753 11.71 11.7 11.71C11.3247 11.71 10.9648 11.8591 10.6994 12.1244C10.4341 12.3898 10.285 12.7497 10.285 13.125C10.2851 13.2695 10.3087 13.4131 10.355 13.55C10.442 13.2609 10.6198 13.0076 10.8621 12.8275C11.1043 12.6474 11.3981 12.5501 11.7 12.55V12.55Z" fill="#EBCB00"/>
<path d="M10.285 13.115C10.285 13.4903 10.4341 13.8502 10.6994 14.1156C10.9648 14.3809 11.3247 14.53 11.7 14.53C12.0753 14.53 12.4352 14.3809 12.7006 14.1156C12.9659 13.8502 13.115 13.4903 13.115 13.115C13.115 12.7397 12.9659 12.3798 12.7006 12.1144C12.4352 11.8491 12.0753 11.7 11.7 11.7C11.3247 11.7 10.9648 11.8491 10.6994 12.1144C10.4341 12.3798 10.285 12.7397 10.285 13.115Z" stroke="#45413C" stroke-width="0.5" stroke-linecap="round" stroke-linejoin="round"/>
</g>
<defs>
<clipPath id="clip0_103_2">
<rect width="20" height="20" fill="white"/>
</clipPath>
</defs>
</svg>
