<?xml version="1.0" encoding="UTF-8"?>
<svg width="24px" height="24px" viewBox="0 0 24 24" version="1.1" xmlns="http://www.w3.org/2000/svg" xmlns:xlink="http://www.w3.org/1999/xlink">
    <title>vuesax/bold/lock</title>
    <g id="vuesax/bold/lock" stroke="none" stroke-width="1" fill="none" fill-rule="evenodd">
        <g id="lock">
            <path d="M24,0 L24,24 L0,24 L0,0 L24,0 Z" id="Vector" opacity="0"></path>
            <path d="M18.75,10.1000004 C18.31,10.0400004 17.81,10.01 17.25,10 L17.25,8 C17.25,4.8499999 16.3600001,2.75 12,2.75 C7.63999987,2.75 6.75,4.8499999 6.75,8 L6.75,10 C6.19,10.01 5.69,10.0400004 5.25,10.1000004 L5.25,8 C5.25,5.0999999 5.94999981,1.25 12,1.25 C18.0500002,1.25 18.75,5.0999999 18.75,8 L18.75,10.1000004 Z" id="Vector" fill="#292D32" fill-rule="nonzero"></path>
            <path d="M17.25,10 L6.75,10 C6.19,10.01 5.69,10.0400004 5.25,10.1000004 C2.70000005,10.4100004 2,11.6600001 2,15 L2,17 C2,21 3,22 7,22 L17,22 C21,22 22,21 22,17 L22,15 C22,11.6600001 21.3,10.4100004 18.75,10.1000004 C18.31,10.0400004 17.81,10.01 17.25,10 Z M8,17 C7.87,17 7.73999988,16.9700001 7.61999989,16.9200001 C7.48999989,16.8700001 7.38999996,16.7999991 7.28999996,16.7099991 C7.10999995,16.5199991 7,16.26 7,16 C7,15.87 7.02999992,15.7399999 7.07999992,15.6199999 C7.12999992,15.5 7.19999996,15.39 7.28999996,15.29 C7.38999996,15.2 7.48999989,15.1299999 7.61999989,15.0799999 C7.98999989,14.9199999 8.43000004,15.01 8.71000004,15.29 C8.80000004,15.39 8.87000008,15.5 8.92000008,15.6199999 C8.97000008,15.7399999 9,15.87 9,16 C9,16.26 8.89000005,16.5199991 8.71000004,16.7099991 C8.52000004,16.8899991 8.25999999,17 8,17 Z M12.71,16.7099991 C12.52,16.8899991 12.26,17 12,17 C11.73,17 11.48,16.8899991 11.29,16.7099991 C11.2,16.6099991 11.1299999,16.5 11.0799999,16.3799992 C11.0299999,16.2599992 11,16.13 11,16 C11,15.73 11.11,15.48 11.29,15.29 C11.66,14.92 12.33,14.92 12.71,15.29 C12.89,15.48 13,15.73 13,16 C13,16.13 12.9700001,16.2599992 12.9200001,16.3799992 C12.8700001,16.5 12.8,16.6099991 12.71,16.7099991 Z M16,17 C15.74,17 15.48,16.8899991 15.29,16.7099991 C15.11,16.5199991 15,16.27 15,16 C15,15.73 15.11,15.48 15.29,15.29 C15.67,14.92 16.3399991,14.92 16.7099991,15.29 C16.7499991,15.34 16.7899999,15.3899998 16.8299999,15.4499998 C16.8699999,15.5 16.9000001,15.5599999 16.9200001,15.6199999 C16.9500001,15.6799999 16.9699995,15.7400002 16.9799995,15.8000002 C16.9899995,15.8700002 17,15.94 17,16 C17,16.26 16.8899991,16.5199991 16.7099991,16.7099991 C16.5199991,16.8899991 16.26,17 16,17 Z" id="Vector" fill="#292D32"></path>
        </g>
    </g>
</svg>