<svg width="20" height="23" viewBox="0 0 20 23" fill="none" xmlns="http://www.w3.org/2000/svg">
<path d="M15.5 8.25H14.75V4.5C14.75 3.30653 14.2759 2.16193 13.432 1.31802C12.5881 0.474106 11.4435 0 10.25 0C9.05653 0 7.91193 0.474106 7.06802 1.31802C6.22411 2.16193 5.75 3.30653 5.75 4.5V8.25H5C4.20462 8.25087 3.44206 8.56722 2.87964 9.12964C2.31722 9.69206 2.00087 10.4546 2 11.25V19.5C2.00087 20.2954 2.31722 21.0579 2.87964 21.6204C3.44206 22.1828 4.20462 22.4991 5 22.5H15.5C16.2954 22.4991 17.0579 22.1828 17.6204 21.6204C18.1828 21.0579 18.4991 20.2954 18.5 19.5V11.25C18.4991 10.4546 18.1828 9.69206 17.6204 9.12964C17.0579 8.56722 16.2954 8.25087 15.5 8.25ZM13.25 8.25H7.25V4.5C7.25 3.70435 7.56607 2.94129 8.12868 2.37868C8.69129 1.81607 9.45435 1.5 10.25 1.5C11.0456 1.5 11.8087 1.81607 12.3713 2.37868C12.9339 2.94129 13.25 3.70435 13.25 4.5V8.25Z" fill="url(#paint0_linear_226_682)"/>
<defs>
<linearGradient id="paint0_linear_226_682" x1="-5" y1="-14" x2="40.0747" y2="-5.22433" gradientUnits="userSpaceOnUse">
<stop offset="0.272418" stop-color="#49A1EE"/>
<stop offset="1" stop-color="#6210C7"/>
</linearGradient>
</defs>
</svg>
