<svg width="20" height="20" viewBox="0 0 20 20" fill="none" xmlns="http://www.w3.org/2000/svg">
<g clip-path="url(#clip0_103_86)">
<path d="M0.485001 10C0.485001 12.5235 1.48747 14.9437 3.27188 16.7281C5.05629 18.5125 7.47647 19.515 10 19.515C12.5235 19.515 14.9437 18.5125 16.7281 16.7281C18.5125 14.9437 19.515 12.5235 19.515 10C19.515 7.47647 18.5125 5.05629 16.7281 3.27188C14.9437 1.48747 12.5235 0.485001 10 0.485001C7.47647 0.485001 5.05629 1.48747 3.27188 3.27188C1.48747 5.05629 0.485001 7.47647 0.485001 10V10Z" fill="#FFE500"/>
<path d="M10 2.725C12.3298 2.72267 14.5793 3.57659 16.3207 5.1244C18.0621 6.67221 19.174 8.80597 19.445 11.12C19.4835 10.7479 19.5019 10.3741 19.5 10C19.5 7.48044 18.4991 5.06408 16.7175 3.28249C14.9359 1.50089 12.5196 0.5 10 0.5C7.48044 0.5 5.06408 1.50089 3.28249 3.28249C1.50089 5.06408 0.5 7.48044 0.5 10C0.503082 10.3743 0.526449 10.7482 0.57 11.12C0.840697 8.80854 1.95045 6.67685 3.68869 5.12939C5.42694 3.58192 7.67274 2.72635 10 2.725V2.725Z" fill="#FFF48C"/>
<path d="M10.025 0.5V19.5C12.5446 19.5 14.9609 18.4991 16.7425 16.7175C18.5241 14.9359 19.525 12.5196 19.525 10C19.525 7.48044 18.5241 5.06408 16.7425 3.28249C14.9609 1.50089 12.5446 0.5 10.025 0.5V0.5Z" fill="#656769"/>
<path d="M10 0.5V2.725C12.3298 2.72267 14.5793 3.57659 16.3207 5.1244C18.0621 6.67221 19.174 8.80597 19.445 11.12C19.4835 10.7479 19.5019 10.3741 19.5 10C19.5 7.48044 18.4991 5.06408 16.7175 3.28249C14.9359 1.50089 12.5196 0.5 10 0.5V0.5Z" fill="#87898C"/>
<path d="M0.485001 10C0.485001 12.5235 1.48747 14.9437 3.27188 16.7281C5.05629 18.5125 7.47647 19.515 10 19.515C12.5235 19.515 14.9437 18.5125 16.7281 16.7281C18.5125 14.9437 19.515 12.5235 19.515 10C19.515 7.47647 18.5125 5.05629 16.7281 3.27188C14.9437 1.48747 12.5235 0.485001 10 0.485001C7.47647 0.485001 5.05629 1.48747 3.27188 3.27188C1.48747 5.05629 0.485001 7.47647 0.485001 10V10Z" stroke="#45413C" stroke-width="0.5" stroke-linecap="round" stroke-linejoin="round"/>
<path d="M17.04 7.33C16.415 7.79 15.39 7.45 14.755 6.575C14.12 5.7 14.105 4.625 14.755 4.17C15.405 3.715 16.4 4.05 17.04 4.925C17.68 5.8 17.665 6.875 17.04 7.33Z" fill="#87898C"/>
<path d="M14.73 5.34C15.35 4.885 16.375 5.225 17.015 6.095C17.1856 6.33011 17.3157 6.59204 17.4 6.87C17.4946 6.53996 17.5076 6.19188 17.4379 5.85569C17.3683 5.5195 17.218 5.20527 17 4.94C16.36 4.07 15.335 3.73 14.715 4.185C14.4921 4.38601 14.3375 4.65166 14.273 4.94481C14.2084 5.23796 14.2371 5.54395 14.355 5.82C14.427 5.6249 14.5581 5.45711 14.73 5.34Z" fill="#525252"/>
<path d="M17.04 7.35C16.415 7.805 15.39 7.465 14.755 6.59C14.12 5.715 14.105 4.64 14.755 4.185C15.405 3.73 16.4 4.07 17.04 4.94C17.68 5.81 17.665 6.895 17.04 7.35Z" stroke="#45413C" stroke-width="0.5" stroke-linecap="round" stroke-linejoin="round"/>
<path d="M2.61 8.42C3.04 8.585 3.61 8.195 3.84 7.545C4.07 6.895 3.94 6.235 3.505 6.07C3.07 5.905 2.505 6.295 2.275 6.945C2.045 7.595 2.175 8.255 2.61 8.42Z" fill="#FFF48C"/>
<path d="M2.275 7.78C2.52 7.135 3.075 6.74 3.505 6.905C3.60132 6.94685 3.68689 7.00998 3.75531 7.08966C3.82372 7.16933 3.87319 7.26347 3.9 7.365C4.055 6.775 3.9 6.22 3.505 6.07C3.11 5.92 2.505 6.295 2.275 6.945C2.14614 7.26298 2.12679 7.61481 2.22 7.945C2.23513 7.88898 2.25349 7.83389 2.275 7.78Z" fill="#EBCB00"/>
<path d="M2.61 8.42C3.04 8.585 3.61 8.195 3.84 7.545C4.07 6.895 3.94 6.235 3.505 6.07C3.07 5.905 2.505 6.295 2.275 6.945C2.045 7.595 2.175 8.255 2.61 8.42Z" stroke="#45413C" stroke-width="0.5" stroke-linecap="round" stroke-linejoin="round"/>
<path d="M9.935 17.35C9.76 18.025 8.77 18.35 7.725 18.075C6.68 17.8 5.97 17.035 6.145 16.36C6.32 15.685 7.31 15.36 8.36 15.64C9.41 15.92 10.11 16.68 9.935 17.35Z" fill="#FFF48C"/>
<path d="M8.36 16.445C8.67234 16.51 8.96742 16.6403 9.22591 16.8273C9.48441 17.0142 9.70049 17.2537 9.86 17.53C9.89305 17.4737 9.91828 17.4131 9.935 17.35C10.11 16.68 9.405 15.91 8.36 15.64C7.315 15.37 6.32 15.69 6.145 16.36C6.0931 16.576 6.12154 16.8035 6.225 17C6.5 16.44 7.41 16.195 8.36 16.445Z" fill="#EBCB00"/>
<path d="M9.935 17.35C9.76 18.025 8.77 18.35 7.725 18.075C6.68 17.8 5.97 17.035 6.145 16.36C6.32 15.685 7.31 15.36 8.36 15.64C9.41 15.92 10.11 16.68 9.935 17.35Z" stroke="#45413C" stroke-width="0.5" stroke-linecap="round" stroke-linejoin="round"/>
<path d="M15.875 11.54C15.875 11.7999 15.9782 12.0492 16.162 12.233C16.3458 12.4168 16.5951 12.52 16.855 12.52C17.1149 12.52 17.3642 12.4168 17.548 12.233C17.7317 12.0492 17.835 11.7999 17.835 11.54C17.835 11.2801 17.7317 11.0308 17.548 10.847C17.3642 10.6633 17.1149 10.56 16.855 10.56C16.5951 10.56 16.3458 10.6633 16.162 10.847C15.9782 11.0308 15.875 11.2801 15.875 11.54Z" fill="#87898C"/>
<path d="M16.855 11.295C17.0496 11.2971 17.2393 11.3559 17.401 11.4643C17.5626 11.5726 17.6891 11.7258 17.765 11.905C17.8116 11.789 17.8354 11.665 17.835 11.54C17.8493 11.3854 17.8275 11.2296 17.7712 11.085C17.7149 10.9403 17.6257 10.8107 17.5106 10.7065C17.3956 10.6023 17.2578 10.5263 17.1083 10.4845C16.9588 10.4427 16.8016 10.4364 16.6492 10.4659C16.4968 10.4954 16.3533 10.56 16.2302 10.6545C16.1071 10.7491 16.0076 10.871 15.9398 11.0106C15.872 11.1503 15.8376 11.3038 15.8393 11.459C15.8411 11.6143 15.879 11.7669 15.95 11.905C16.0255 11.7266 16.1513 11.5739 16.3119 11.4657C16.4726 11.3574 16.6613 11.2981 16.855 11.295Z" fill="#525252"/>
<path d="M15.875 11.54C15.875 11.7999 15.9782 12.0492 16.162 12.233C16.3458 12.4168 16.5951 12.52 16.855 12.52C17.1149 12.52 17.3642 12.4168 17.548 12.233C17.7317 12.0492 17.835 11.7999 17.835 11.54C17.835 11.2801 17.7317 11.0308 17.548 10.847C17.3642 10.6633 17.1149 10.56 16.855 10.56C16.5951 10.56 16.3458 10.6633 16.162 10.847C15.9782 11.0308 15.875 11.2801 15.875 11.54Z" stroke="#45413C" stroke-width="0.5" stroke-linecap="round" stroke-linejoin="round"/>
<path d="M4.96 10.7C4.96 10.9599 5.06325 11.2092 5.24703 11.393C5.43082 11.5768 5.68009 11.68 5.94 11.68C6.19991 11.68 6.44918 11.5768 6.63296 11.393C6.81675 11.2092 6.92 10.9599 6.92 10.7C6.92 10.4401 6.81675 10.1908 6.63296 10.007C6.44918 9.82325 6.19991 9.72 5.94 9.72C5.68009 9.72 5.43082 9.82325 5.24703 10.007C5.06325 10.1908 4.96 10.4401 4.96 10.7Z" fill="#FFF48C"/>
<path d="M5.94 10.42C6.13771 10.4228 6.33017 10.4841 6.49303 10.5963C6.65589 10.7084 6.78186 10.8663 6.855 11.05C6.89742 10.9382 6.91944 10.8196 6.92 10.7C6.8741 10.4739 6.75145 10.2707 6.57285 10.1247C6.39425 9.97874 6.17067 9.899 5.94 9.899C5.70933 9.899 5.48575 9.97874 5.30715 10.1247C5.12855 10.2707 5.0059 10.4739 4.96 10.7C4.96215 10.8199 4.98587 10.9385 5.03 11.05C5.10281 10.8671 5.22801 10.7097 5.38989 10.5976C5.55178 10.4856 5.74314 10.4238 5.94 10.42Z" fill="#EBCB00"/>
<path d="M4.96 10.7C4.96 10.9599 5.06325 11.2092 5.24703 11.393C5.43082 11.5768 5.68009 11.68 5.94 11.68C6.19991 11.68 6.44918 11.5768 6.63296 11.393C6.81675 11.2092 6.92 10.9599 6.92 10.7C6.92 10.4401 6.81675 10.1908 6.63296 10.007C6.44918 9.82325 6.19991 9.72 5.94 9.72C5.68009 9.72 5.43082 9.82325 5.24703 10.007C5.06325 10.1908 4.96 10.4401 4.96 10.7Z" stroke="#45413C" stroke-width="0.5" stroke-linecap="round" stroke-linejoin="round"/>
<path d="M5.8 5.24C5.8 5.68556 5.977 6.11288 6.29206 6.42794C6.60712 6.743 7.03444 6.92 7.48 6.92C7.92557 6.92 8.35288 6.743 8.66794 6.42794C8.983 6.11288 9.16 5.68556 9.16 5.24C9.16 4.79444 8.983 4.36712 8.66794 4.05206C8.35288 3.737 7.92557 3.56 7.48 3.56C7.03444 3.56 6.60712 3.737 6.29206 4.05206C5.977 4.36712 5.8 4.79444 5.8 5.24V5.24Z" fill="#FFF48C"/>
<path d="M7.5 4.615C7.85211 4.61588 8.19504 4.72738 8.48035 4.93373C8.76566 5.14009 8.97892 5.43087 9.09 5.765C9.14555 5.60396 9.17591 5.43531 9.18 5.265C9.18 4.81944 9.003 4.39212 8.68794 4.07706C8.37288 3.762 7.94556 3.585 7.5 3.585C7.05444 3.585 6.62712 3.762 6.31206 4.07706C5.997 4.39212 5.82 4.81944 5.82 5.265C5.8257 5.43557 5.85774 5.60423 5.915 5.765C6.02515 5.43127 6.23748 5.14064 6.52194 4.93425C6.80639 4.72786 7.14856 4.61618 7.5 4.615V4.615Z" fill="#EBCB00"/>
<path d="M5.82 5.24C5.82 5.46062 5.86345 5.67908 5.94788 5.88291C6.03231 6.08674 6.15606 6.27194 6.31206 6.42794C6.46806 6.58394 6.65326 6.70769 6.85709 6.79212C7.06092 6.87655 7.27938 6.92 7.5 6.92C7.72062 6.92 7.93908 6.87655 8.14291 6.79212C8.34673 6.70769 8.53194 6.58394 8.68794 6.42794C8.84394 6.27194 8.96769 6.08674 9.05212 5.88291C9.13654 5.67908 9.18 5.46062 9.18 5.24C9.18 5.01938 9.13654 4.80092 9.05212 4.59709C8.96769 4.39327 8.84394 4.20806 8.68794 4.05206C8.53194 3.89606 8.34673 3.77231 8.14291 3.68788C7.93908 3.60346 7.72062 3.56 7.5 3.56C7.27938 3.56 7.06092 3.60346 6.85709 3.68788C6.65326 3.77231 6.46806 3.89606 6.31206 4.05206C6.15606 4.20806 6.03231 4.39327 5.94788 4.59709C5.86345 4.80092 5.82 5.01938 5.82 5.24V5.24Z" stroke="#45413C" stroke-width="0.5" stroke-linecap="round" stroke-linejoin="round"/>
<path d="M10.28 13.08C10.28 13.4513 10.4275 13.8074 10.69 14.07C10.9526 14.3325 11.3087 14.48 11.68 14.48C12.0513 14.48 12.4074 14.3325 12.6699 14.07C12.9325 13.8074 13.08 13.4513 13.08 13.08C13.08 12.7087 12.9325 12.3526 12.6699 12.0901C12.4074 11.8275 12.0513 11.68 11.68 11.68C11.3087 11.68 10.9526 11.8275 10.69 12.0901C10.4275 12.3526 10.28 12.7087 10.28 13.08Z" fill="#87898C"/>
<path d="M11.68 12.5C11.9784 12.5022 12.2681 12.6008 12.5059 12.781C12.7438 12.9612 12.9171 13.2134 13 13.5C13.0475 13.365 13.0729 13.2231 13.075 13.08C13.075 12.7087 12.9275 12.3526 12.665 12.0901C12.4024 11.8275 12.0463 11.68 11.675 11.68C11.3037 11.68 10.9476 11.8275 10.6851 12.0901C10.4225 12.3526 10.275 12.7087 10.275 13.08C10.2782 13.2226 10.3018 13.364 10.345 13.5C10.4301 13.2117 10.606 12.9587 10.8466 12.7785C11.0871 12.5983 11.3794 12.5006 11.68 12.5V12.5Z" fill="#525252"/>
<path d="M10.28 13.08C10.28 13.4513 10.4275 13.8074 10.69 14.07C10.9526 14.3325 11.3087 14.48 11.68 14.48C12.0513 14.48 12.4074 14.3325 12.6699 14.07C12.9325 13.8074 13.08 13.4513 13.08 13.08C13.08 12.7087 12.9325 12.3526 12.6699 12.0901C12.4074 11.8275 12.0513 11.68 11.68 11.68C11.3087 11.68 10.9526 11.8275 10.69 12.0901C10.4275 12.3526 10.28 12.7087 10.28 13.08Z" stroke="#45413C" stroke-width="0.5" stroke-linecap="round" stroke-linejoin="round"/>
</g>
<defs>
<clipPath id="clip0_103_86">
<rect width="20" height="20" fill="white"/>
</clipPath>
</defs>
</svg>
