<svg width="50" height="47" viewBox="0 0 50 47" fill="none" xmlns="http://www.w3.org/2000/svg">
<path d="M8.85986 27.2195C8.02059 25.8564 7.37926 24.3538 6.93587 22.7116C6.49248 21.0694 6.27078 19.3532 6.27078 17.5632C6.27078 15.0013 6.72209 12.5791 7.6247 10.2964C8.52732 7.99728 9.78622 5.98556 11.4014 4.26123C13.0325 2.5369 14.9169 1.22312 17.0546 0.3199C18.3056 -0.189188 19.2241 -0.0906549 19.81 0.6155C20.3642 1.30523 20.3959 2.21666 19.905 3.3498C19.5566 4.12164 19.2874 5.04949 19.0974 6.13336C18.9232 7.21722 18.8361 8.30109 18.8361 9.38495C18.8361 12.1767 19.3824 14.599 20.4751 16.6518C21.5835 18.6881 23.1512 20.2647 25.1781 21.3814C27.2209 22.4817 29.6358 23.0318 32.4228 23.0318C33.4204 23.0318 34.3626 22.9579 35.2494 22.8101C36.1362 22.6459 36.9359 22.4078 37.6485 22.0957C38.1552 21.8658 38.6223 21.7755 39.0499 21.8248C39.4933 21.8576 39.8575 22.0054 40.1425 22.2682C40.8076 22.9579 40.863 23.9186 40.3088 25.1503C40.0079 25.9385 39.6279 26.6283 39.1686 27.2195H8.85986ZM2.44656 33.7966C1.95566 33.7966 1.54394 33.6405 1.2114 33.3285C0.894695 33.0001 0.736342 32.5895 0.736342 32.0969C0.736342 31.6206 0.894695 31.2183 1.2114 30.8898C1.54394 30.5614 1.95566 30.3972 2.44656 30.3972H47.5059C47.981 30.3972 48.3769 30.5614 48.6936 30.8898C49.0261 31.2183 49.1924 31.6206 49.1924 32.0969C49.1924 32.5895 49.0261 33.0001 48.6936 33.3285C48.3769 33.6405 47.981 33.7966 47.5059 33.7966H2.44656ZM4.13302 41.3343C3.78464 41.3343 3.48377 41.2112 3.2304 40.9648C2.99287 40.7185 2.87411 40.4065 2.87411 40.0288C2.87411 39.6511 2.99287 39.339 3.2304 39.0927C3.48377 38.8464 3.78464 38.7232 4.13302 38.7232C4.49723 38.7232 4.7981 38.8464 5.03563 39.0927C5.27316 39.339 5.39192 39.6511 5.39192 40.0288C5.39192 40.4065 5.27316 40.7185 5.03563 40.9648C4.7981 41.2112 4.49723 41.3343 4.13302 41.3343ZM13.6342 41.3343C13.2858 41.3343 12.985 41.2112 12.7316 40.9648C12.4941 40.7185 12.3753 40.4065 12.3753 40.0288C12.3753 39.6511 12.4941 39.339 12.7316 39.0927C12.985 38.8464 13.2858 38.7232 13.6342 38.7232C13.9826 38.7232 14.2755 38.8464 14.5131 39.0927C14.7664 39.339 14.8931 39.6511 14.8931 40.0288C14.8931 40.4065 14.7664 40.7185 14.5131 40.9648C14.2755 41.2112 13.9826 41.3343 13.6342 41.3343ZM23.1354 41.3343C22.7712 41.3343 22.4624 41.2112 22.209 40.9648C21.9715 40.7185 21.8527 40.4065 21.8527 40.0288C21.8527 39.6511 21.9715 39.339 22.209 39.0927C22.4624 38.8464 22.7712 38.7232 23.1354 38.7232C23.4838 38.7232 23.7767 38.8464 24.0143 39.0927C24.2676 39.339 24.3943 39.6511 24.3943 40.0288C24.3943 40.4065 24.2676 40.7185 24.0143 40.9648C23.7767 41.2112 23.4838 41.3343 23.1354 41.3343ZM32.6128 41.3343C32.2645 41.3343 31.9636 41.2112 31.7102 40.9648C31.4727 40.7185 31.3539 40.4065 31.3539 40.0288C31.3539 39.6511 31.4727 39.339 31.7102 39.0927C31.9636 38.8464 32.2645 38.7232 32.6128 38.7232C32.977 38.7232 33.2779 38.8464 33.5154 39.0927C33.753 39.339 33.8717 39.6511 33.8717 40.0288C33.8717 40.4065 33.753 40.7185 33.5154 40.9648C33.2779 41.2112 32.977 41.3343 32.6128 41.3343ZM42.114 41.3343C41.7656 41.3343 41.4648 41.2112 41.2114 40.9648C40.9739 40.7185 40.8551 40.4065 40.8551 40.0288C40.8551 39.6511 40.9739 39.339 41.2114 39.0927C41.4648 38.8464 41.7656 38.7232 42.114 38.7232C42.4624 38.7232 42.7553 38.8464 42.9929 39.0927C43.2462 39.339 43.3729 39.6511 43.3729 40.0288C43.3729 40.4065 43.2462 40.7185 42.9929 40.9648C42.7553 41.2112 42.4624 41.3343 42.114 41.3343ZM1.28266 47C0.918448 47 0.60966 46.8686 0.356295 46.6059C0.118765 46.3595 0 46.0475 0 45.6698C0 45.3085 0.118765 44.9965 0.356295 44.7337C0.60966 44.4874 0.918448 44.3642 1.28266 44.3642C1.63104 44.3642 1.92399 44.4874 2.16152 44.7337C2.41489 44.9965 2.54157 45.3085 2.54157 45.6698C2.54157 46.0475 2.41489 46.3595 2.16152 46.6059C1.92399 46.8686 1.63104 47 1.28266 47ZM10.7601 47C10.4117 47 10.1108 46.8686 9.85748 46.6059C9.61995 46.3595 9.50119 46.0475 9.50119 45.6698C9.50119 45.3085 9.61995 44.9965 9.85748 44.7337C10.1108 44.4874 10.4117 44.3642 10.7601 44.3642C11.1243 44.3642 11.4252 44.4874 11.6627 44.7337C11.9002 44.9965 12.019 45.3085 12.019 45.6698C12.019 46.0475 11.9002 46.3595 11.6627 46.6059C11.4252 46.8686 11.1243 47 10.7601 47ZM20.2613 47C19.9129 47 19.612 46.8686 19.3587 46.6059C19.1211 46.3595 19.0024 46.0475 19.0024 45.6698C19.0024 45.3085 19.1211 44.9965 19.3587 44.7337C19.612 44.4874 19.9129 44.3642 20.2613 44.3642C20.6097 44.3642 20.9026 44.4874 21.1401 44.7337C21.3935 44.9965 21.5202 45.3085 21.5202 45.6698C21.5202 46.0475 21.3935 46.3595 21.1401 46.6059C20.9026 46.8686 20.6097 47 20.2613 47ZM29.7625 47C29.3983 47 29.0895 46.8686 28.8361 46.6059C28.5986 46.3595 28.4798 46.0475 28.4798 45.6698C28.4798 45.3085 28.5986 44.9965 28.8361 44.7337C29.0895 44.4874 29.3983 44.3642 29.7625 44.3642C30.1108 44.3642 30.4038 44.4874 30.6413 44.7337C30.8789 44.9965 30.9976 45.3085 30.9976 45.6698C30.9976 46.0475 30.8789 46.3595 30.6413 46.6059C30.4038 46.8686 30.1108 47 29.7625 47ZM39.2399 47C38.8915 47 38.5907 46.8686 38.3373 46.6059C38.0998 46.3595 37.981 46.0475 37.981 45.6698C37.981 45.3085 38.0998 44.9965 38.3373 44.7337C38.5907 44.4874 38.8915 44.3642 39.2399 44.3642C39.6041 44.3642 39.905 44.4874 40.1425 44.7337C40.38 44.9965 40.4988 45.3085 40.4988 45.6698C40.4988 46.0475 40.38 46.3595 40.1425 46.6059C39.905 46.8686 39.6041 47 39.2399 47ZM48.7411 47C48.3927 47 48.0918 46.8686 47.8385 46.6059C47.5851 46.3595 47.4584 46.0475 47.4584 45.6698C47.4584 45.3085 47.5851 44.9965 47.8385 44.7337C48.0918 44.4874 48.3927 44.3642 48.7411 44.3642C49.0895 44.3642 49.3824 44.4874 49.62 44.7337C49.8733 44.9965 50 45.3085 50 45.6698C50 46.0475 49.8733 46.3595 49.62 46.6059C49.3824 46.8686 49.0895 47 48.7411 47Z" fill="#464544"/>
</svg>
