<svg width="20" height="31" viewBox="0 0 20 31" fill="none" xmlns="http://www.w3.org/2000/svg">
<path d="M10.8381 2.32633L1.11252 16.2252C0.852634 16.5952 1.06728 17.0201 1.50708 17.0201H5.50708C5.85692 17.0201 6.00708 17.1602 6.00708 17.5201L6.00708 28.2831C6.00708 28.993 6.86669 29.303 7.27651 28.733L16.8954 15.9053C17.1652 15.5353 16.9469 15.0201 16.5071 15.0201C16.5071 15.0201 13.5071 15.0201 13.0071 15.0201C12.5071 15.0201 12.0071 14.5201 12.0071 14.0201C12.0071 13.5201 12.0071 3.02012 12.0071 2.52013C12.0071 2.02014 11.2479 1.74637 10.8381 2.32633Z" fill="url(#paint0_linear_208_674)"/>
<defs>
<linearGradient id="paint0_linear_208_674" x1="13" y1="-32" x2="5" y2="65" gradientUnits="userSpaceOnUse">
<stop stop-color="#2264FF"/>
<stop offset="1" stop-color="#B820FF"/>
</linearGradient>
</defs>
</svg>
