<svg width="50" height="47" viewBox="0 0 50 47" fill="none" xmlns="http://www.w3.org/2000/svg">
<path d="M36.7842 24.9551C36.7842 25.5968 36.7232 26.2308 36.601 26.8571C36.4941 27.4682 36.3338 28.0488 36.12 28.5987H13.88C13.6662 28.0488 13.4982 27.4682 13.3761 26.8571C13.2692 26.2308 13.2158 25.5968 13.2158 24.9551C13.2158 23.3358 13.5211 21.8157 14.1319 20.3949C14.758 18.9589 15.6054 17.6985 16.6743 16.6138C17.7584 15.5292 19.0105 14.6813 20.4306 14.0702C21.8659 13.4438 23.3929 13.1307 25.0115 13.1307C26.63 13.1307 28.1493 13.4438 29.5694 14.0702C30.9895 14.6813 32.2416 15.5292 33.3257 16.6138C34.4098 17.6985 35.2573 18.9589 35.8681 20.3949C36.4789 21.8157 36.7842 23.3358 36.7842 24.9551ZM2.26752 26.3759C1.64147 26.3759 1.10704 26.1697 0.664224 25.7572C0.221408 25.3294 0 24.8176 0 24.2218C0 23.6413 0.221408 23.1448 0.664224 22.7323C1.10704 22.3046 1.64147 22.0907 2.26752 22.0907H6.87128C7.5126 22.0907 8.05466 22.3046 8.49748 22.7323C8.9403 23.1448 9.1617 23.6413 9.1617 24.2218C9.1617 24.8176 8.9403 25.3294 8.49748 25.7572C8.05466 26.1697 7.5126 26.3759 6.87128 26.3759H2.26752ZM13.8113 13.7952C13.399 14.2077 12.8798 14.4063 12.2538 14.391C11.643 14.3758 11.1162 14.139 10.6734 13.6806L7.42098 10.4495C6.94763 9.99122 6.70331 9.46416 6.68804 8.86836C6.68804 8.25727 6.90182 7.74549 7.32936 7.33301C7.75691 6.92053 8.26844 6.71429 8.86395 6.71429C9.45946 6.71429 9.98626 6.94344 10.4443 7.40176L13.7197 10.6558C14.1625 11.1141 14.3839 11.6488 14.3839 12.2599C14.3991 12.8557 14.2083 13.3675 13.8113 13.7952ZM25.0115 9.14334C24.4159 9.15862 23.9044 8.94474 23.4769 8.50171C23.0646 8.04339 22.8585 7.50106 22.8585 6.8747V2.26865C22.8585 1.62701 23.0646 1.09231 23.4769 0.664554C23.9044 0.221518 24.4159 0 25.0115 0C25.5917 0 26.0956 0.221518 26.5231 0.664554C26.9507 1.09231 27.1645 1.62701 27.1645 2.26865V6.8747C27.1645 7.50106 26.9507 8.03576 26.5231 8.47879C26.0956 8.92183 25.5917 9.14334 25.0115 9.14334ZM36.2116 13.7952C35.7994 13.3827 35.5932 12.871 35.5932 12.2599C35.6085 11.6488 35.8452 11.1141 36.3033 10.6558L39.5557 7.40176C40.0137 6.94344 40.5482 6.71429 41.159 6.71429C41.7697 6.69901 42.2736 6.90525 42.6706 7.33301C43.0829 7.76077 43.2891 8.27255 43.2891 8.86836C43.2891 9.46416 43.06 9.99122 42.6019 10.4495L39.3266 13.6806C38.8838 14.139 38.357 14.3758 37.7462 14.391C37.1354 14.4063 36.6239 14.2077 36.2116 13.7952ZM43.1287 26.3759C42.5027 26.3759 41.9682 26.1697 41.5254 25.7572C41.0826 25.3294 40.8612 24.8176 40.8612 24.2218C40.8459 23.6413 41.0597 23.1448 41.5025 22.7323C41.9606 22.3046 42.5027 22.0907 43.1287 22.0907H47.7325C48.3738 22.0907 48.9082 22.3046 49.3358 22.7323C49.7786 23.1448 50 23.6413 50 24.2218C50 24.8176 49.7786 25.3294 49.3358 25.7572C48.9082 26.1697 48.3738 26.3759 47.7325 26.3759H43.1287ZM3.27531 34.7172C2.81722 34.7172 2.42785 34.5721 2.10719 34.2818C1.78653 33.9763 1.6262 33.5943 1.6262 33.136C1.6262 32.693 1.78653 32.3187 2.10719 32.0132C2.42785 31.7076 2.81722 31.5549 3.27531 31.5549H46.7247C47.1828 31.5549 47.5721 31.7076 47.8928 32.0132C48.2135 32.3187 48.3738 32.693 48.3738 33.136C48.3738 33.5943 48.2135 33.9763 47.8928 34.2818C47.5721 34.5721 47.1828 34.7172 46.7247 34.7172H3.27531ZM4.92442 41.7294C4.58849 41.7294 4.29837 41.6148 4.05405 41.3857C3.80974 41.1565 3.68759 40.8662 3.68759 40.5149C3.68759 40.1635 3.80974 39.8732 4.05405 39.6441C4.29837 39.4149 4.58849 39.3003 4.92442 39.3003C5.26035 39.3003 5.54283 39.4149 5.77187 39.6441C6.01619 39.8732 6.13834 40.1635 6.13834 40.5149C6.13834 40.8662 6.01619 41.1565 5.77187 41.3857C5.54283 41.6148 5.26035 41.7294 4.92442 41.7294ZM14.0861 41.7294C13.7349 41.7294 13.4372 41.6148 13.1929 41.3857C12.9638 41.1565 12.8493 40.8662 12.8493 40.5149C12.8493 40.1635 12.9638 39.8732 13.1929 39.6441C13.4372 39.4149 13.7349 39.3003 14.0861 39.3003C14.422 39.3003 14.7045 39.4149 14.9336 39.6441C15.1779 39.8732 15.3 40.1635 15.3 40.5149C15.3 40.8662 15.1779 41.1565 14.9336 41.3857C14.7045 41.6148 14.422 41.7294 14.0861 41.7294ZM23.2249 41.7294C22.889 41.7294 22.5989 41.6148 22.3546 41.3857C22.1255 41.1565 22.011 40.8662 22.011 40.5149C22.011 40.1635 22.1255 39.8732 22.3546 39.6441C22.5989 39.4149 22.889 39.3003 23.2249 39.3003C23.5761 39.3003 23.8662 39.4149 24.0953 39.6441C24.3396 39.8732 24.4618 40.1635 24.4618 40.5149C24.4618 40.8662 24.3396 41.1565 24.0953 41.3857C23.8662 41.6148 23.5761 41.7294 23.2249 41.7294ZM32.3866 41.7294C32.0507 41.7294 31.7606 41.6148 31.5163 41.3857C31.2719 41.1565 31.1498 40.8662 31.1498 40.5149C31.1498 40.1635 31.2719 39.8732 31.5163 39.6441C31.7606 39.4149 32.0507 39.3003 32.3866 39.3003C32.7226 39.3003 33.005 39.4149 33.2341 39.6441C33.4784 39.8732 33.6005 40.1635 33.6005 40.5149C33.6005 40.8662 33.4784 41.1565 33.2341 41.3857C33.005 41.6148 32.7226 41.7294 32.3866 41.7294ZM41.5483 41.7294C41.1971 41.7294 40.8994 41.6148 40.6551 41.3857C40.426 41.1565 40.3115 40.8662 40.3115 40.5149C40.3115 40.1635 40.426 39.8732 40.6551 39.6441C40.8994 39.4149 41.1971 39.3003 41.5483 39.3003C41.8843 39.3003 42.1667 39.4149 42.3958 39.6441C42.6401 39.8732 42.7623 40.1635 42.7623 40.5149C42.7623 40.8662 42.6401 41.1565 42.3958 41.3857C42.1667 41.6148 41.8843 41.7294 41.5483 41.7294ZM2.153 47C1.81707 47 1.52695 46.8778 1.28264 46.6334C1.0536 46.4042 0.939075 46.1139 0.939075 45.7626C0.939075 45.4265 1.0536 45.1362 1.28264 44.8918C1.52695 44.6626 1.81707 44.548 2.153 44.548C2.5042 44.548 2.79432 44.6626 3.02336 44.8918C3.26767 45.1362 3.38983 45.4265 3.38983 45.7626C3.38983 46.1139 3.26767 46.4042 3.02336 46.6334C2.79432 46.8778 2.5042 47 2.153 47ZM11.3147 47C10.9635 47 10.6658 46.8778 10.4214 46.6334C10.1924 46.4042 10.0779 46.1139 10.0779 45.7626C10.0779 45.4265 10.1924 45.1362 10.4214 44.8918C10.6658 44.6626 10.9635 44.548 11.3147 44.548C11.6506 44.548 11.9331 44.6626 12.1622 44.8918C12.4065 45.1362 12.5286 45.4265 12.5286 45.7626C12.5286 46.1139 12.4065 46.4042 12.1622 46.6334C11.9331 46.8778 11.6506 47 11.3147 47ZM20.4535 47C20.1176 47 19.8275 46.8778 19.5831 46.6334C19.3541 46.4042 19.2396 46.1139 19.2396 45.7626C19.2396 45.4265 19.3541 45.1362 19.5831 44.8918C19.8275 44.6626 20.1176 44.548 20.4535 44.548C20.8047 44.548 21.0948 44.6626 21.3239 44.8918C21.5682 45.1362 21.6903 45.4265 21.6903 45.7626C21.6903 46.1139 21.5682 46.4042 21.3239 46.6334C21.0948 46.8778 20.8047 47 20.4535 47ZM29.6152 47C29.2793 47 28.9892 46.8778 28.7448 46.6334C28.5158 46.4042 28.4013 46.1139 28.4013 45.7626C28.4013 45.4265 28.5158 45.1362 28.7448 44.8918C28.9892 44.6626 29.2793 44.548 29.6152 44.548C29.9511 44.548 30.2413 44.6626 30.4856 44.8918C30.7299 45.1362 30.852 45.4265 30.852 45.7626C30.852 46.1139 30.7299 46.4042 30.4856 46.6334C30.2413 46.8778 29.9511 47 29.6152 47ZM38.7769 47C38.4257 47 38.128 46.8778 37.8836 46.6334C37.6546 46.4042 37.5401 46.1139 37.5401 45.7626C37.5401 45.4265 37.6546 45.1362 37.8836 44.8918C38.128 44.6626 38.4257 44.548 38.7769 44.548C39.1128 44.548 39.3953 44.6626 39.6244 44.8918C39.8687 45.1362 39.9908 45.4265 39.9908 45.7626C39.9908 46.1139 39.8687 46.4042 39.6244 46.6334C39.3953 46.8778 39.1128 47 38.7769 47ZM47.9157 47C47.5798 47 47.2897 46.8778 47.0453 46.6334C46.8163 46.4042 46.7018 46.1139 46.7018 45.7626C46.7018 45.4265 46.8163 45.1362 47.0453 44.8918C47.2897 44.6626 47.5798 44.548 47.9157 44.548C48.2669 44.548 48.557 44.6626 48.7861 44.8918C49.0304 45.1362 49.1525 45.4265 49.1525 45.7626C49.1525 46.1139 49.0304 46.4042 48.7861 46.6334C48.557 46.8778 48.2669 47 47.9157 47Z" fill="#464544"/>
</svg>
