<svg width="30" height="30" viewBox="0 0 30 30" fill="none" xmlns="http://www.w3.org/2000/svg">
<path d="M4.73438 28.0312L6.11404 27.662L6.48422 26.8601L8.8753 26.9229L11.3619 26.2573L11.9221 25.389L14.2488 25.4846L16.6781 24.8344C18.3656 24.3844 18.9375 22.2656 17.7 21.0281L8.9625 12.2812C7.725 11.0437 5.60625 11.6062 5.15625 13.3031L4.43192 16.0093L4.53332 18.2073L3.70758 18.7155L2.96705 21.4821L3.09114 23.5894L2.28164 24.0429L1.95938 25.2469C1.5 26.9344 3.04688 28.4812 4.73438 28.0312Z" fill="#F9C23C"/>
<path d="M7.3132 23.4869C5.9254 22.1909 4.74332 20.6307 3.69955 18.7454L4.42831 16.0227C5.62687 18.6457 6.97513 20.6063 8.59254 22.1167C10.1513 23.5723 11.9977 24.6449 14.2835 25.4753L11.3499 26.2606C9.84811 25.5132 8.51245 24.6068 7.3132 23.4869Z" fill="#3F5FFF"/>
<path d="M4.01908 26.1434C3.35564 25.523 2.78532 24.8281 2.27997 24.0491L2.97828 21.4401C3.63702 22.8371 4.37487 23.9095 5.29944 24.7741C6.2218 25.6367 7.36984 26.3297 8.89768 26.9169L6.09568 27.6669C5.32433 27.2238 4.63718 26.7214 4.01908 26.1434Z" fill="#3F5FFF"/>
<path d="M17.9156 24.0844C19.2281 22.7719 17.5969 19.0219 14.2781 15.7031C10.9594 12.3844 7.21874 10.7531 5.90624 12.0656C4.59374 13.3781 6.22499 17.1281 9.54374 20.4469C12.8625 23.7656 16.6125 25.3875 17.9156 24.0844Z" fill="#6D4534"/>
<path d="M10.8844 6.81558C12.0469 8.99058 12.2813 11.4843 11.5594 13.8375C10.95 15.8437 9.69379 17.5406 7.98754 18.7125C7.50004 18.1031 7.07816 17.4937 6.72191 16.9031C8.02504 16.0125 8.98129 14.7187 9.45004 13.1906C10.0032 11.4 9.82504 9.50621 8.94379 7.85621C8.65316 7.31246 8.85941 6.64683 9.39379 6.36558C9.93754 6.07496 10.6032 6.28121 10.8844 6.81558Z" fill="#F70A8D"/>
<path d="M20.7655 15.668C22.538 14.2678 24.837 13.9827 26.816 14.7207C27.3245 14.9104 27.8905 14.6519 28.0802 14.1434C28.2699 13.6348 28.0114 13.0688 27.5028 12.8792C24.9069 11.911 21.8808 12.2822 19.5471 14.1257C19.1212 14.4621 19.0487 15.0801 19.3851 15.506C19.7216 15.9319 20.3396 16.0044 20.7655 15.668Z" fill="#F70A8D"/>
<path d="M5.63437 9.08432C6.23498 9.08432 6.72187 8.59743 6.72187 7.99682C6.72187 7.39621 6.23498 6.90932 5.63437 6.90932C5.03377 6.90932 4.54688 7.39621 4.54688 7.99682C4.54688 8.59743 5.03377 9.08432 5.63437 9.08432Z" fill="#F70A8D"/>
<path d="M24.4969 7.99682C24.4969 8.59743 24.01 9.08432 23.4094 9.08432C22.8088 9.08432 22.3219 8.59743 22.3219 7.99682C22.3219 7.39621 22.8088 6.90932 23.4094 6.90932C24.01 6.90932 24.4969 7.39621 24.4969 7.99682Z" fill="#F70A8D"/>
<path d="M11.7094 3.7125C11.7094 4.20956 11.3064 4.6125 10.8094 4.6125C10.3123 4.6125 9.90936 4.20956 9.90936 3.7125C9.90936 3.21544 10.3123 2.8125 10.8094 2.8125C11.3064 2.8125 11.7094 3.21544 11.7094 3.7125Z" fill="#F9C23C"/>
<path d="M23.8875 22.8844C23.8875 23.3866 23.4803 23.7938 22.9781 23.7938C22.4759 23.7938 22.0687 23.3866 22.0687 22.8844C22.0687 22.3821 22.4759 21.975 22.9781 21.975C23.4803 21.975 23.8875 22.3821 23.8875 22.8844Z" fill="#F9C23C"/>
<path d="M20.2781 3.76869C20.1281 3.63744 19.9406 3.55306 19.7344 3.54369C19.2281 3.51556 18.7969 3.89994 18.7594 4.40619C18.6938 5.43744 17.9813 7.30306 17.7094 7.93119C17.7094 7.93587 17.7071 7.94056 17.7047 7.94525C17.7024 7.94994 17.7 7.95462 17.7 7.95931C17.6498 8.08312 17.5961 8.20521 17.5389 8.32539C17.4432 8.20562 17.3376 8.096 17.2219 7.99682C16.9594 7.76245 16.6406 7.58432 16.2656 7.46245L16.2375 7.45307C14.9719 7.0312 13.5938 7.71557 13.1719 8.99057C12.9656 9.60932 13.0125 10.2656 13.3031 10.8468C13.5938 11.4281 14.0906 11.8593 14.7094 12.0656C14.7759 12.0877 14.8432 12.1017 14.9104 12.1081C15.3841 12.2361 15.8425 12.2405 16.2838 12.122C16.2571 12.2507 16.226 12.3788 16.1906 12.5062C16.0594 12.9937 16.35 13.4999 16.8375 13.6312C17.325 13.7624 17.8313 13.4718 17.9625 12.9843C18.1737 12.2207 18.2653 11.4429 18.2371 10.6572C18.7249 10.0461 19.1146 9.37288 19.4063 8.64369L19.4201 8.61027C19.5939 8.18971 20.5059 5.98313 20.5969 4.50931C20.6063 4.21869 20.4844 3.94681 20.2781 3.76869ZM15.7031 9.19682C15.9613 9.28288 16.226 9.42771 16.3393 10.0182C15.8775 10.4469 15.5813 10.3999 15.3188 10.3124C15.2872 10.3019 15.2554 10.2932 15.2236 10.2863C15.1045 10.2303 15.0087 10.1315 14.9531 10.0124C14.8781 9.87182 14.8688 9.71245 14.925 9.56245C15.0281 9.25307 15.3656 9.08432 15.675 9.18745L15.7031 9.19682Z" fill="#00A6ED"/>
<path d="M17.1281 17.025C20.325 16.1343 23.6719 16.5375 26.5594 18.1687C27.0938 18.4781 27.2813 19.1437 26.9906 19.6687C26.6906 20.2031 26.0156 20.3906 25.4813 20.0906C23.1094 18.7593 20.3531 18.4218 17.7281 19.1531C15.5625 19.7531 13.7063 21.0281 12.3656 22.7906C11.7938 22.3968 11.2031 21.9468 10.6219 21.4406C12.2438 19.3125 14.5031 17.7562 17.1281 17.025Z" fill="#00A6ED"/>
<path d="M15.5851 15.9237C15.5851 16.5191 15.1024 17.0018 14.5069 17.0018C13.9115 17.0018 13.4288 16.5191 13.4288 15.9237C13.4288 15.3283 13.9115 14.8456 14.5069 14.8456C15.1024 14.8456 15.5851 15.3283 15.5851 15.9237Z" fill="#00A6ED"/>
</svg>
