<svg width="20" height="20" viewBox="0 0 20 20" fill="none" xmlns="http://www.w3.org/2000/svg">
<g clip-path="url(#clip0_103_58)">
<path d="M19.355 10C19.355 12.4811 18.3694 14.8606 16.615 16.615C14.8606 18.3694 12.4811 19.355 10 19.355C7.5189 19.355 5.13942 18.3694 3.38502 16.615C1.63062 14.8606 0.645004 12.4811 0.645004 10C0.645004 7.5189 1.63062 5.13942 3.38502 3.38502C5.13942 1.63061 7.5189 0.645 10 0.645C12.4811 0.645 14.8606 1.63061 16.615 3.38502C18.3694 5.13942 19.355 7.5189 19.355 10V10Z" fill="#FFE500"/>
<path d="M10 0.645C10.4233 0.648727 10.8459 0.680463 11.265 0.74C7.765 1.36 5.1 5.24 5.1 10C5.1 14.76 7.785 18.64 11.265 19.26C10.8459 19.3195 10.4233 19.3513 10 19.355C7.5189 19.355 5.13942 18.3694 3.38501 16.615C1.63061 14.8606 0.645 12.4811 0.645 10C0.645 7.5189 1.63061 5.13942 3.38501 3.38502C5.13942 1.63061 7.5189 0.645 10 0.645V0.645Z" fill="#656769"/>
<path d="M10 2.845C7.71027 2.84625 5.5005 3.68722 3.78928 5.20861C2.07807 6.73 0.98424 8.82615 0.715004 11.1C0.671292 10.7349 0.647923 10.3677 0.645004 10C0.645004 7.5189 1.63062 5.13942 3.38502 3.38502C5.13942 1.63061 7.5189 0.645 10 0.645C12.4811 0.645 14.8606 1.63061 16.615 3.38502C18.3694 5.13942 19.355 7.5189 19.355 10C19.3521 10.3677 19.3287 10.7349 19.285 11.1C19.0158 8.82615 17.9219 6.73 16.2107 5.20861C14.4995 3.68722 12.2897 2.84625 10 2.845V2.845Z" fill="#FFF48C"/>
<path d="M10 0.645C10.245 0.645 10.5 0.645 10.735 0.685C10.97 0.725 11.09 0.715 11.265 0.74C9.68484 1.06387 8.27694 1.9527 7.305 3.24C5.56139 3.7677 4.00942 4.79222 2.839 6.1882C1.66858 7.58418 0.930469 9.29107 0.714999 11.1V11.1L0.684999 10.77C0.684999 10.515 0.645 10.27 0.645 10.005C0.644343 8.77606 0.885831 7.55904 1.35567 6.42346C1.82551 5.28788 2.51449 4.25601 3.38325 3.38678C4.252 2.51756 5.28351 1.82803 6.41884 1.35758C7.55417 0.88714 8.77106 0.645 10 0.645V0.645Z" fill="#87898C"/>
<path d="M19.355 10C19.355 12.4811 18.3694 14.8606 16.615 16.615C14.8606 18.3694 12.4811 19.355 10 19.355C7.5189 19.355 5.13942 18.3694 3.38502 16.615C1.63062 14.8606 0.645004 12.4811 0.645004 10C0.645004 7.5189 1.63062 5.13942 3.38502 3.38502C5.13942 1.63061 7.5189 0.645 10 0.645C12.4811 0.645 14.8606 1.63061 16.615 3.38502C18.3694 5.13942 19.355 7.5189 19.355 10V10Z" stroke="#45413C" stroke-width="0.5" stroke-linecap="round" stroke-linejoin="round"/>
<path d="M3.08001 7.375C3.69501 7.825 4.70001 7.49 5.32501 6.635C5.95001 5.78 5.96501 4.715 5.35001 4.265C4.73501 3.815 3.73501 4.15 3.10501 5.01C2.47501 5.87 2.46501 6.93 3.08001 7.375Z" fill="#87898C"/>
<path d="M5.35 5.42C4.74 4.97 3.735 5.305 3.105 6.16C2.93909 6.39173 2.81084 6.64823 2.725 6.92C2.62983 6.59782 2.61469 6.25729 2.68091 5.92793C2.74713 5.59858 2.8927 5.29036 3.105 5.03C3.735 4.17 4.74 3.835 5.35 4.285C5.56894 4.48225 5.72082 4.74293 5.78446 5.03066C5.8481 5.3184 5.82033 5.61882 5.705 5.89C5.63654 5.70125 5.51284 5.53747 5.35 5.42V5.42Z" fill="#525252"/>
<path d="M3.08001 7.395C3.69501 7.84 4.70001 7.51 5.32501 6.65C5.95001 5.79 5.96501 4.73 5.35001 4.285C4.73501 3.84 3.73501 4.17 3.10501 5.03C2.47501 5.89 2.46501 6.945 3.08001 7.395Z" stroke="#45413C" stroke-width="0.5" stroke-linecap="round" stroke-linejoin="round"/>
<path d="M17.265 8.45C16.84 8.61 16.295 8.225 16.055 7.585C15.815 6.945 15.955 6.3 16.385 6.135C16.815 5.97 17.35 6.36 17.595 7C17.84 7.64 17.69 8.285 17.265 8.45Z" fill="#FFF48C"/>
<path d="M17.595 7.82C17.35 7.18 16.81 6.795 16.385 6.96C16.2908 7.00081 16.2072 7.06255 16.1405 7.14052C16.0738 7.2185 16.0257 7.31066 16 7.41C15.845 6.83 16 6.285 16.385 6.135C16.77 5.985 17.35 6.36 17.595 7C17.7274 7.31719 17.7468 7.67021 17.65 8C17.6363 7.93869 17.6179 7.87851 17.595 7.82V7.82Z" fill="#EBCB00"/>
<path d="M17.265 8.45C16.84 8.61 16.295 8.225 16.055 7.585C15.815 6.945 15.955 6.3 16.385 6.135C16.815 5.97 17.35 6.36 17.595 7C17.84 7.64 17.69 8.285 17.265 8.45Z" stroke="#45413C" stroke-width="0.5" stroke-linecap="round" stroke-linejoin="round"/>
<path d="M10.06 17.225C10.235 17.89 11.21 18.225 12.24 17.94C13.27 17.655 13.96 16.915 13.79 16.255C13.62 15.595 12.64 15.255 11.615 15.545C10.59 15.835 9.89001 16.565 10.06 17.225Z" fill="#FFF48C"/>
<path d="M11.615 16.335C11.3071 16.3979 11.0162 16.526 10.7618 16.7105C10.5074 16.895 10.2954 17.1318 10.14 17.405C10.1083 17.3474 10.0815 17.2872 10.06 17.225C9.89 16.565 10.585 15.81 11.615 15.545C12.645 15.28 13.615 15.595 13.79 16.255C13.8353 16.4631 13.807 16.6804 13.71 16.87C13.425 16.33 12.545 16.09 11.615 16.335Z" fill="#EBCB00"/>
<path d="M10.06 17.225C10.235 17.89 11.21 18.225 12.24 17.94C13.27 17.655 13.96 16.915 13.79 16.255C13.62 15.595 12.64 15.255 11.615 15.545C10.59 15.835 9.89001 16.565 10.06 17.225Z" stroke="#45413C" stroke-width="0.5" stroke-linecap="round" stroke-linejoin="round"/>
<path d="M4.22501 11.515C4.22501 11.7709 4.12334 12.0164 3.94236 12.1974C3.76139 12.3783 3.51594 12.48 3.26001 12.48C3.00407 12.48 2.75862 12.3783 2.57765 12.1974C2.39668 12.0164 2.29501 11.7709 2.29501 11.515C2.29501 11.2591 2.39668 11.0136 2.57765 10.8326C2.75862 10.6517 3.00407 10.55 3.26001 10.55C3.51594 10.55 3.76139 10.6517 3.94236 10.8326C4.12334 11.0136 4.22501 11.2591 4.22501 11.515V11.515Z" fill="#87898C"/>
<path d="M3.26 11.27C3.06803 11.2697 2.88043 11.3273 2.72167 11.4352C2.56291 11.5431 2.44036 11.6964 2.37 11.875C2.31108 11.7293 2.28884 11.5713 2.30524 11.415C2.32164 11.2587 2.37617 11.1087 2.46405 10.9784C2.55193 10.8481 2.67047 10.7413 2.80925 10.6675C2.94803 10.5937 3.10281 10.5551 3.26 10.5551C3.41719 10.5551 3.57197 10.5937 3.71075 10.6675C3.84953 10.7413 3.96807 10.8481 4.05595 10.9784C4.14383 11.1087 4.19836 11.2587 4.21476 11.415C4.23116 11.5713 4.20892 11.7293 4.15 11.875C4.07965 11.6964 3.95709 11.5431 3.79833 11.4352C3.63957 11.3273 3.45197 11.2697 3.26 11.27V11.27Z" fill="#525252"/>
<path d="M4.22501 11.515C4.22501 11.7709 4.12334 12.0164 3.94236 12.1974C3.76139 12.3783 3.51594 12.48 3.26001 12.48C3.00407 12.48 2.75862 12.3783 2.57765 12.1974C2.39668 12.0164 2.29501 11.7709 2.29501 11.515C2.29501 11.2591 2.39668 11.0136 2.57765 10.8326C2.75862 10.6517 3.00407 10.55 3.26001 10.55C3.51594 10.55 3.76139 10.6517 3.94236 10.8326C4.12334 11.0136 4.22501 11.2591 4.22501 11.515V11.515Z" stroke="#45413C" stroke-width="0.5" stroke-linecap="round" stroke-linejoin="round"/>
<path d="M14.955 10.69C14.955 10.9459 14.8533 11.1914 14.6724 11.3724C14.4914 11.5533 14.2459 11.655 13.99 11.655C13.7341 11.655 13.4886 11.5533 13.3076 11.3724C13.1267 11.1914 13.025 10.9459 13.025 10.69C13.025 10.4341 13.1267 10.1886 13.3076 10.0076C13.4886 9.82667 13.7341 9.725 13.99 9.725C14.2459 9.725 14.4914 9.82667 14.6724 10.0076C14.8533 10.1886 14.955 10.4341 14.955 10.69V10.69Z" fill="#FFF48C"/>
<path d="M14 10.415C13.8055 10.4149 13.6155 10.4735 13.4548 10.5833C13.2942 10.693 13.1706 10.8487 13.1 11.03C13.0422 10.8837 13.021 10.7254 13.0384 10.569C13.0557 10.4126 13.1111 10.2628 13.1996 10.1327C13.2881 10.0026 13.407 9.89612 13.5461 9.82251C13.6852 9.74891 13.8401 9.71043 13.9975 9.71043C14.1549 9.71043 14.3098 9.74891 14.4489 9.82251C14.588 9.89612 14.7069 10.0026 14.7954 10.1327C14.8839 10.2628 14.9393 10.4126 14.9566 10.569C14.974 10.7254 14.9528 10.8837 14.895 11.03C14.8253 10.8491 14.7026 10.6936 14.5428 10.5838C14.3831 10.474 14.1938 10.4152 14 10.415V10.415Z" fill="#EBCB00"/>
<path d="M14.955 10.69C14.955 10.9459 14.8533 11.1914 14.6724 11.3724C14.4914 11.5533 14.2459 11.655 13.99 11.655C13.7341 11.655 13.4886 11.5533 13.3076 11.3724C13.1267 11.1914 13.025 10.9459 13.025 10.69C13.025 10.4341 13.1267 10.1886 13.3076 10.0076C13.4886 9.82667 13.7341 9.725 13.99 9.725C14.2459 9.725 14.4914 9.82667 14.6724 10.0076C14.8533 10.1886 14.955 10.4341 14.955 10.69V10.69Z" stroke="#45413C" stroke-width="0.5" stroke-linecap="round" stroke-linejoin="round"/>
<path d="M14.125 5.325C14.125 5.76261 13.9512 6.18229 13.6417 6.49173C13.3323 6.80116 12.9126 6.975 12.475 6.975C12.0374 6.975 11.6177 6.80116 11.3083 6.49173C10.9988 6.18229 10.825 5.76261 10.825 5.325C10.825 4.88739 10.9988 4.46771 11.3083 4.15827C11.6177 3.84884 12.0374 3.675 12.475 3.675C12.9126 3.675 13.3323 3.84884 13.6417 4.15827C13.9512 4.46771 14.125 4.88739 14.125 5.325V5.325Z" fill="#FFF48C"/>
<path d="M12.475 4.705C12.1286 4.70583 11.7913 4.816 11.5112 5.01981C11.231 5.22361 11.0224 5.51065 10.915 5.84C10.8588 5.67913 10.8284 5.51037 10.825 5.34C10.825 4.90239 10.9988 4.48271 11.3083 4.17327C11.6177 3.86384 12.0374 3.69 12.475 3.69C12.9126 3.69 13.3323 3.86384 13.6417 4.17327C13.9512 4.48271 14.125 4.90239 14.125 5.34C14.1216 5.51037 14.0912 5.67913 14.035 5.84C13.9283 5.51024 13.7198 5.22277 13.4395 5.01886C13.1593 4.81494 12.8216 4.70507 12.475 4.705V4.705Z" fill="#EBCB00"/>
<path d="M14.11 5.325C14.11 5.54168 14.0673 5.75624 13.9844 5.95643C13.9015 6.15661 13.7799 6.33851 13.6267 6.49173C13.4735 6.64494 13.2916 6.76648 13.0914 6.8494C12.8912 6.93232 12.6767 6.975 12.46 6.975C12.2433 6.975 12.0288 6.93232 11.8286 6.8494C11.6284 6.76648 11.4465 6.64494 11.2933 6.49173C11.1401 6.33851 11.0185 6.15661 10.9356 5.95643C10.8527 5.75624 10.81 5.54168 10.81 5.325C10.81 5.10832 10.8527 4.89376 10.9356 4.69357C11.0185 4.49339 11.1401 4.31149 11.2933 4.15827C11.4465 4.00506 11.6284 3.88352 11.8286 3.8006C12.0288 3.71768 12.2433 3.675 12.46 3.675C12.6767 3.675 12.8912 3.71768 13.0914 3.8006C13.2916 3.88352 13.4735 4.00506 13.6267 4.15827C13.7799 4.31149 13.9015 4.49339 13.9844 4.69357C14.0673 4.89376 14.11 5.10832 14.11 5.325Z" stroke="#45413C" stroke-width="0.5" stroke-linecap="round" stroke-linejoin="round"/>
<path d="M9.72501 13.025C9.72501 13.3897 9.58014 13.7394 9.32228 13.9973C9.06442 14.2551 8.71468 14.4 8.35001 14.4C7.98533 14.4 7.6356 14.2551 7.37773 13.9973C7.11987 13.7394 6.97501 13.3897 6.97501 13.025C6.97501 12.6603 7.11987 12.3106 7.37773 12.0527C7.6356 11.7949 7.98533 11.65 8.35001 11.65C8.71468 11.65 9.06442 11.7949 9.32228 12.0527C9.58014 12.3106 9.72501 12.6603 9.72501 13.025Z" fill="#FFF48C"/>
<path d="M8.35001 12.5C8.05785 12.5 7.77341 12.5938 7.5385 12.7675C7.3036 12.9412 7.13062 13.1857 7.04501 13.465C6.99875 13.3315 6.9751 13.1913 6.97501 13.05C6.97501 12.6853 7.11987 12.3356 7.37773 12.0777C7.6356 11.8199 7.98533 11.675 8.35001 11.675C8.71468 11.675 9.06442 11.8199 9.32228 12.0777C9.58014 12.3356 9.72501 12.6853 9.72501 13.05C9.72249 13.1911 9.6989 13.3309 9.65501 13.465C9.56939 13.1857 9.39642 12.9412 9.16151 12.7675C8.9266 12.5938 8.64216 12.5 8.35001 12.5V12.5Z" fill="#EBCB00"/>
<path d="M9.72501 13.025C9.72501 13.3897 9.58014 13.7394 9.32228 13.9973C9.06442 14.2551 8.71468 14.4 8.35001 14.4C7.98533 14.4 7.6356 14.2551 7.37773 13.9973C7.11987 13.7394 6.97501 13.3897 6.97501 13.025C6.97501 12.6603 7.11987 12.3106 7.37773 12.0527C7.6356 11.7949 7.98533 11.65 8.35001 11.65C8.71468 11.65 9.06442 11.7949 9.32228 12.0527C9.58014 12.3106 9.72501 12.6603 9.72501 13.025Z" stroke="#45413C" stroke-width="0.5" stroke-linecap="round" stroke-linejoin="round"/>
</g>
<defs>
<clipPath id="clip0_103_58">
<rect width="20" height="20" fill="white" transform="matrix(-1 0 0 1 20 0)"/>
</clipPath>
</defs>
</svg>
