<svg width="50" height="50" viewBox="0 0 50 50" fill="none" xmlns="http://www.w3.org/2000/svg">
<path d="M38.7366 33.0749C40.2061 33.0749 41.6398 32.9501 43.0376 32.7005C44.4534 32.4332 45.6093 32.1212 46.5054 31.7647C47.2043 31.4438 47.8226 31.2834 48.3602 31.2834C48.8082 31.2834 49.1936 31.4528 49.5161 31.7914C49.8387 32.1123 50 32.5312 50 33.0481C50 33.2799 49.9731 33.5651 49.9194 33.9037C49.8656 34.2424 49.7491 34.6168 49.5699 35.0267C48.6918 37.1836 47.4731 39.1711 45.914 40.9893C44.3728 42.8075 42.5627 44.3939 40.4839 45.7487C38.405 47.1034 36.138 48.1462 33.6828 48.877C31.2455 49.6257 28.7007 50 26.0484 50C22.3387 50 18.8979 49.3672 15.7258 48.1016C12.5717 46.8538 9.81183 45.0891 7.44624 42.8075C5.09857 40.508 3.27061 37.8075 1.96237 34.7059C0.654122 31.6043 0 28.2086 0 24.5187C0 21.0071 0.654122 17.656 1.96237 14.4652C3.28853 11.2567 5.13441 8.43137 7.5 5.9893C9.88351 3.52941 12.6613 1.65775 15.8333 0.374332C16.1918 0.249554 16.5323 0.160428 16.8548 0.106952C17.1774 0.0356506 17.4462 0 17.6613 0C18.2348 0 18.6738 0.178253 18.9785 0.534759C19.3011 0.891266 19.4624 1.29234 19.4624 1.73797C19.4624 1.98752 19.4265 2.26381 19.3548 2.56684C19.2832 2.85205 19.1577 3.17291 18.9785 3.52941C18.6559 4.18895 18.3692 5.00891 18.1183 5.9893C17.8853 6.9697 17.6971 8.00356 17.5538 9.09091C17.4283 10.1783 17.3656 11.221 17.3656 12.2193C17.3656 15.4278 17.8584 18.3244 18.8441 20.9091C19.8477 23.4759 21.2814 25.6684 23.1452 27.4866C25.009 29.3048 27.2491 30.6952 29.8656 31.6578C32.5 32.6025 35.457 33.0749 38.7366 33.0749Z" fill="#A0CED9"/>
</svg>
