<svg width="20" height="20" viewBox="0 0 20 20" fill="none" xmlns="http://www.w3.org/2000/svg">
<g clip-path="url(#clip0_103_30)">
<path d="M19.515 10C19.515 12.5235 18.5125 14.9437 16.7281 16.7281C14.9437 18.5125 12.5235 19.515 10 19.515C7.47646 19.515 5.05629 18.5125 3.27188 16.7281C1.48747 14.9437 0.485001 12.5235 0.485001 10C0.485001 7.47647 1.48747 5.05629 3.27188 3.27188C5.05629 1.48747 7.47646 0.485 10 0.485C12.5235 0.485 14.9437 1.48747 16.7281 3.27188C18.5125 5.05629 19.515 7.47647 19.515 10V10Z" fill="#FFE500"/>
<path d="M10 2.725C7.67016 2.72267 5.42069 3.57659 3.67929 5.1244C1.9379 6.67221 0.825997 8.80597 0.555 11.12C0.516461 10.7479 0.498101 10.3741 0.5 10C0.5 7.48044 1.50089 5.06408 3.28249 3.28249C5.06408 1.50089 7.48044 0.5 10 0.5C12.5196 0.5 14.9359 1.50089 16.7175 3.28249C18.4991 5.06408 19.5 7.48044 19.5 10C19.4969 10.3743 19.4736 10.7482 19.43 11.12C19.1593 8.80854 18.0496 6.67685 16.3113 5.12939C14.5731 3.58192 12.3273 2.72635 10 2.725V2.725Z" fill="#FFF48C"/>
<path d="M9.975 0.5V19.5C7.45544 19.5 5.03908 18.4991 3.25748 16.7175C1.47589 14.9359 0.474998 12.5196 0.474998 10C0.474998 7.48044 1.47589 5.06408 3.25748 3.28249C5.03908 1.50089 7.45544 0.5 9.975 0.5V0.5Z" fill="#656769"/>
<path d="M10 0.5V2.725C7.67016 2.72267 5.42069 3.57659 3.67929 5.1244C1.9379 6.67221 0.825997 8.80597 0.555 11.12C0.516461 10.7479 0.498101 10.3741 0.5 10C0.5 7.48044 1.50089 5.06408 3.28249 3.28249C5.06408 1.50089 7.48044 0.5 10 0.5V0.5Z" fill="#87898C"/>
<path d="M19.515 10C19.515 12.5235 18.5125 14.9437 16.7281 16.7281C14.9437 18.5125 12.5235 19.515 10 19.515C7.47646 19.515 5.05629 18.5125 3.27188 16.7281C1.48747 14.9437 0.485001 12.5235 0.485001 10C0.485001 7.47647 1.48747 5.05629 3.27188 3.27188C5.05629 1.48747 7.47646 0.485 10 0.485C12.5235 0.485 14.9437 1.48747 16.7281 3.27188C18.5125 5.05629 19.515 7.47647 19.515 10V10Z" stroke="#45413C" stroke-width="0.5" stroke-linecap="round" stroke-linejoin="round"/>
<path d="M2.96 7.33C3.585 7.79 4.61 7.45 5.245 6.575C5.88 5.7 5.895 4.625 5.245 4.17C4.595 3.715 3.6 4.05 2.96 4.925C2.32 5.8 2.335 6.875 2.96 7.33Z" fill="#87898C"/>
<path d="M5.27 5.34C4.65 4.885 3.625 5.225 2.985 6.095C2.81444 6.33011 2.68431 6.59204 2.6 6.87C2.50541 6.53996 2.49239 6.19188 2.56207 5.85569C2.63174 5.5195 2.78203 5.20526 3 4.94C3.64 4.07 4.665 3.73 5.285 4.185C5.50793 4.38601 5.66247 4.65166 5.72702 4.94481C5.79156 5.23796 5.76289 5.54395 5.645 5.82C5.57296 5.6249 5.44187 5.45711 5.27 5.34Z" fill="#525252"/>
<path d="M2.96 7.35C3.585 7.805 4.61 7.465 5.245 6.59C5.88 5.715 5.895 4.64 5.245 4.185C4.595 3.73 3.6 4.07 2.96 4.94C2.32 5.81 2.335 6.895 2.96 7.35Z" stroke="#45413C" stroke-width="0.5" stroke-linecap="round" stroke-linejoin="round"/>
<path d="M17.39 8.42C16.96 8.585 16.39 8.195 16.16 7.545C15.93 6.895 16.06 6.235 16.495 6.07C16.93 5.905 17.495 6.295 17.725 6.945C17.955 7.595 17.825 8.255 17.39 8.42Z" fill="#FFF48C"/>
<path d="M17.725 7.78C17.48 7.135 16.925 6.74 16.495 6.905C16.3987 6.94685 16.3131 7.00998 16.2447 7.08965C16.1763 7.16933 16.1268 7.26347 16.1 7.365C15.945 6.775 16.1 6.22 16.495 6.07C16.89 5.92 17.495 6.295 17.725 6.945C17.8539 7.26298 17.8732 7.61481 17.78 7.945C17.7649 7.88898 17.7465 7.83389 17.725 7.78Z" fill="#EBCB00"/>
<path d="M17.39 8.42C16.96 8.585 16.39 8.195 16.16 7.545C15.93 6.895 16.06 6.235 16.495 6.07C16.93 5.905 17.495 6.295 17.725 6.945C17.955 7.595 17.825 8.255 17.39 8.42Z" stroke="#45413C" stroke-width="0.5" stroke-linecap="round" stroke-linejoin="round"/>
<path d="M10.065 17.35C10.24 18.025 11.23 18.35 12.275 18.075C13.32 17.8 14.03 17.035 13.855 16.36C13.68 15.685 12.69 15.36 11.64 15.64C10.59 15.92 9.89 16.68 10.065 17.35Z" fill="#FFF48C"/>
<path d="M11.64 16.445C11.3277 16.51 11.0326 16.6403 10.7741 16.8273C10.5156 17.0142 10.2995 17.2537 10.14 17.53C10.107 17.4737 10.0817 17.4131 10.065 17.35C9.89 16.68 10.595 15.91 11.64 15.64C12.685 15.37 13.68 15.69 13.855 16.36C13.9069 16.576 13.8785 16.8034 13.775 17C13.5 16.44 12.59 16.195 11.64 16.445Z" fill="#EBCB00"/>
<path d="M10.065 17.35C10.24 18.025 11.23 18.35 12.275 18.075C13.32 17.8 14.03 17.035 13.855 16.36C13.68 15.685 12.69 15.36 11.64 15.64C10.59 15.92 9.89 16.68 10.065 17.35Z" stroke="#45413C" stroke-width="0.5" stroke-linecap="round" stroke-linejoin="round"/>
<path d="M4.125 11.54C4.125 11.7999 4.02175 12.0492 3.83797 12.233C3.65418 12.4168 3.40491 12.52 3.145 12.52C2.88509 12.52 2.63582 12.4168 2.45204 12.233C2.26825 12.0492 2.165 11.7999 2.165 11.54C2.165 11.2801 2.26825 11.0308 2.45204 10.847C2.63582 10.6632 2.88509 10.56 3.145 10.56C3.40491 10.56 3.65418 10.6632 3.83797 10.847C4.02175 11.0308 4.125 11.2801 4.125 11.54Z" fill="#87898C"/>
<path d="M3.145 11.295C2.95042 11.2971 2.76067 11.3559 2.59904 11.4643C2.4374 11.5726 2.31088 11.7258 2.235 11.905C2.18836 11.789 2.16459 11.665 2.165 11.54C2.15066 11.3854 2.17251 11.2296 2.22881 11.085C2.28511 10.9403 2.37433 10.8107 2.48938 10.7065C2.60444 10.6023 2.74218 10.5263 2.8917 10.4845C3.04122 10.4427 3.19842 10.4364 3.35083 10.4659C3.50324 10.4954 3.64669 10.56 3.76981 10.6545C3.89294 10.7491 3.99235 10.871 4.06019 11.0106C4.12803 11.1503 4.16243 11.3038 4.16066 11.459C4.15889 11.6143 4.121 11.7669 4.05 11.905C3.97446 11.7266 3.84872 11.5739 3.68805 11.4657C3.52739 11.3574 3.33873 11.2981 3.145 11.295Z" fill="#525252"/>
<path d="M4.125 11.54C4.125 11.7999 4.02175 12.0492 3.83797 12.233C3.65418 12.4168 3.40491 12.52 3.145 12.52C2.88509 12.52 2.63582 12.4168 2.45204 12.233C2.26825 12.0492 2.165 11.7999 2.165 11.54C2.165 11.2801 2.26825 11.0308 2.45204 10.847C2.63582 10.6632 2.88509 10.56 3.145 10.56C3.40491 10.56 3.65418 10.6632 3.83797 10.847C4.02175 11.0308 4.125 11.2801 4.125 11.54Z" stroke="#45413C" stroke-width="0.5" stroke-linecap="round" stroke-linejoin="round"/>
<path d="M15.04 10.7C15.04 10.9599 14.9368 11.2092 14.753 11.393C14.5692 11.5768 14.3199 11.68 14.06 11.68C13.8001 11.68 13.5508 11.5768 13.367 11.393C13.1833 11.2092 13.08 10.9599 13.08 10.7C13.08 10.4401 13.1833 10.1908 13.367 10.007C13.5508 9.82325 13.8001 9.72 14.06 9.72C14.3199 9.72 14.5692 9.82325 14.753 10.007C14.9368 10.1908 15.04 10.4401 15.04 10.7Z" fill="#FFF48C"/>
<path d="M14.06 10.42C13.8623 10.4228 13.6698 10.4841 13.507 10.5963C13.3441 10.7084 13.2181 10.8663 13.145 11.05C13.1026 10.9382 13.0806 10.8196 13.08 10.7C13.1259 10.4739 13.2485 10.2707 13.4271 10.1247C13.6058 9.97874 13.8293 9.899 14.06 9.899C14.2907 9.899 14.5143 9.97874 14.6929 10.1247C14.8715 10.2707 14.9941 10.4739 15.04 10.7C15.0378 10.8199 15.0141 10.9385 14.97 11.05C14.8972 10.8671 14.772 10.7097 14.6101 10.5976C14.4482 10.4856 14.2569 10.4238 14.06 10.42Z" fill="#EBCB00"/>
<path d="M15.04 10.7C15.04 10.9599 14.9368 11.2092 14.753 11.393C14.5692 11.5768 14.3199 11.68 14.06 11.68C13.8001 11.68 13.5508 11.5768 13.367 11.393C13.1833 11.2092 13.08 10.9599 13.08 10.7C13.08 10.4401 13.1833 10.1908 13.367 10.007C13.5508 9.82325 13.8001 9.72 14.06 9.72C14.3199 9.72 14.5692 9.82325 14.753 10.007C14.9368 10.1908 15.04 10.4401 15.04 10.7Z" stroke="#45413C" stroke-width="0.5" stroke-linecap="round" stroke-linejoin="round"/>
<path d="M14.2 5.24C14.2 5.68556 14.023 6.11288 13.7079 6.42794C13.3929 6.743 12.9656 6.92 12.52 6.92C12.0744 6.92 11.6471 6.743 11.3321 6.42794C11.017 6.11288 10.84 5.68556 10.84 5.24C10.84 4.79444 11.017 4.36712 11.3321 4.05206C11.6471 3.737 12.0744 3.56 12.52 3.56C12.9656 3.56 13.3929 3.737 13.7079 4.05206C14.023 4.36712 14.2 4.79444 14.2 5.24V5.24Z" fill="#FFF48C"/>
<path d="M12.5 4.615C12.1479 4.61588 11.805 4.72738 11.5196 4.93373C11.2343 5.14009 11.0211 5.43087 10.91 5.765C10.8544 5.60396 10.8241 5.43531 10.82 5.265C10.82 4.81944 10.997 4.39212 11.3121 4.07706C11.6271 3.762 12.0544 3.585 12.5 3.585C12.9456 3.585 13.3729 3.762 13.6879 4.07706C14.003 4.39212 14.18 4.81944 14.18 5.265C14.1743 5.43557 14.1423 5.60423 14.085 5.765C13.9748 5.43127 13.7625 5.14064 13.4781 4.93425C13.1936 4.72786 12.8514 4.61617 12.5 4.615V4.615Z" fill="#EBCB00"/>
<path d="M14.18 5.24C14.18 5.46062 14.1365 5.67908 14.0521 5.88291C13.9677 6.08674 13.8439 6.27194 13.6879 6.42794C13.5319 6.58394 13.3467 6.70769 13.1429 6.79212C12.9391 6.87655 12.7206 6.92 12.5 6.92C12.2794 6.92 12.0609 6.87655 11.8571 6.79212C11.6533 6.70769 11.4681 6.58394 11.3121 6.42794C11.1561 6.27194 11.0323 6.08674 10.9479 5.88291C10.8635 5.67908 10.82 5.46062 10.82 5.24C10.82 5.01938 10.8635 4.80092 10.9479 4.59709C11.0323 4.39326 11.1561 4.20806 11.3121 4.05206C11.4681 3.89606 11.6533 3.77231 11.8571 3.68788C12.0609 3.60345 12.2794 3.56 12.5 3.56C12.7206 3.56 12.9391 3.60345 13.1429 3.68788C13.3467 3.77231 13.5319 3.89606 13.6879 4.05206C13.8439 4.20806 13.9677 4.39326 14.0521 4.59709C14.1365 4.80092 14.18 5.01938 14.18 5.24V5.24Z" stroke="#45413C" stroke-width="0.5" stroke-linecap="round" stroke-linejoin="round"/>
<path d="M9.72 13.08C9.72 13.4513 9.5725 13.8074 9.30995 14.07C9.0474 14.3325 8.6913 14.48 8.32 14.48C7.9487 14.48 7.5926 14.3325 7.33005 14.07C7.0675 13.8074 6.92 13.4513 6.92 13.08C6.92 12.7087 7.0675 12.3526 7.33005 12.0901C7.5926 11.8275 7.9487 11.68 8.32 11.68C8.6913 11.68 9.0474 11.8275 9.30995 12.0901C9.5725 12.3526 9.72 12.7087 9.72 13.08Z" fill="#87898C"/>
<path d="M8.32 12.5C8.02161 12.5022 7.73193 12.6008 7.49408 12.781C7.25623 12.9612 7.08294 13.2134 7 13.5C6.95247 13.365 6.92715 13.2231 6.925 13.08C6.925 12.7087 7.0725 12.3526 7.33505 12.0901C7.5976 11.8275 7.95369 11.68 8.325 11.68C8.6963 11.68 9.0524 11.8275 9.31495 12.0901C9.5775 12.3526 9.725 12.7087 9.725 13.08C9.72176 13.2226 9.69818 13.364 9.655 13.5C9.5699 13.2117 9.39397 12.9587 9.15342 12.7785C8.91287 12.5983 8.62055 12.5006 8.32 12.5V12.5Z" fill="#525252"/>
<path d="M9.72 13.08C9.72 13.4513 9.5725 13.8074 9.30995 14.07C9.0474 14.3325 8.6913 14.48 8.32 14.48C7.9487 14.48 7.5926 14.3325 7.33005 14.07C7.0675 13.8074 6.92 13.4513 6.92 13.08C6.92 12.7087 7.0675 12.3526 7.33005 12.0901C7.5926 11.8275 7.9487 11.68 8.32 11.68C8.6913 11.68 9.0474 11.8275 9.30995 12.0901C9.5725 12.3526 9.72 12.7087 9.72 13.08Z" stroke="#45413C" stroke-width="0.5" stroke-linecap="round" stroke-linejoin="round"/>
</g>
<defs>
<clipPath id="clip0_103_30">
<rect width="20" height="20" fill="white" transform="matrix(-1 0 0 1 20 0)"/>
</clipPath>
</defs>
</svg>
