<svg width="20" height="20" viewBox="0 0 20 20" fill="none" xmlns="http://www.w3.org/2000/svg">
<g clip-path="url(#clip0_102_60)">
<path d="M0.645 10C0.645 12.4811 1.63061 14.8606 3.38502 16.615C5.13942 18.3694 7.5189 19.355 10 19.355C12.4811 19.355 14.8606 18.3694 16.615 16.615C18.3694 14.8606 19.355 12.4811 19.355 10C19.355 7.5189 18.3694 5.13942 16.615 3.38502C14.8606 1.63061 12.4811 0.645 10 0.645C7.5189 0.645 5.13942 1.63061 3.38502 3.38502C1.63061 5.13942 0.645 7.5189 0.645 10Z" fill="#FFE500"/>
<path d="M10 0.645C9.5767 0.648728 9.15411 0.680464 8.735 0.74C12.235 1.36 14.9 5.24 14.9 10C14.9 14.76 12.215 18.64 8.735 19.26C9.15411 19.3195 9.5767 19.3513 10 19.355C12.4811 19.355 14.8606 18.3694 16.615 16.615C18.3694 14.8606 19.355 12.4811 19.355 10C19.355 7.5189 18.3694 5.13942 16.615 3.38502C14.8606 1.63061 12.4811 0.645 10 0.645Z" fill="#656769"/>
<path d="M10 2.845C12.2897 2.84625 14.4995 3.68722 16.2107 5.20861C17.9219 6.73 19.0158 8.82615 19.285 11.1C19.3287 10.7349 19.3521 10.3677 19.355 10C19.355 7.5189 18.3694 5.13942 16.615 3.38502C14.8606 1.63061 12.4811 0.645 10 0.645C7.5189 0.645 5.13942 1.63061 3.38502 3.38502C1.63061 5.13942 0.645 7.5189 0.645 10C0.647919 10.3677 0.671289 10.7349 0.715 11.1C0.984237 8.82615 2.07806 6.73 3.78928 5.20861C5.5005 3.68722 7.71026 2.84625 10 2.845Z" fill="#FFF48C"/>
<path d="M10 0.645C9.755 0.645 9.5 0.645 9.265 0.685C9.03 0.725 8.91 0.715 8.735 0.74C10.3152 1.06387 11.7231 1.9527 12.695 3.24C14.4386 3.7677 15.9906 4.79223 17.161 6.18821C18.3314 7.58419 19.0695 9.29107 19.285 11.1L19.315 10.77C19.315 10.515 19.355 10.27 19.355 10.005C19.3557 8.77606 19.1142 7.55904 18.6443 6.42346C18.1745 5.28788 17.4855 4.25601 16.6168 3.38678C15.748 2.51756 14.7165 1.82803 13.5812 1.35759C12.4458 0.88714 11.2289 0.645 10 0.645Z" fill="#87898C"/>
<path d="M0.645 10C0.645 12.4811 1.63061 14.8606 3.38502 16.615C5.13942 18.3694 7.5189 19.355 10 19.355C12.4811 19.355 14.8606 18.3694 16.615 16.615C18.3694 14.8606 19.355 12.4811 19.355 10C19.355 7.5189 18.3694 5.13942 16.615 3.38502C14.8606 1.63061 12.4811 0.645 10 0.645C7.5189 0.645 5.13942 1.63061 3.38502 3.38502C1.63061 5.13942 0.645 7.5189 0.645 10V10Z" stroke="#45413C" stroke-width="0.5" stroke-linecap="round" stroke-linejoin="round"/>
<path d="M16.92 7.375C16.305 7.825 15.3 7.49 14.675 6.635C14.05 5.78 14.035 4.715 14.65 4.265C15.265 3.815 16.265 4.15 16.895 5.01C17.525 5.87 17.535 6.93 16.92 7.375Z" fill="#87898C"/>
<path d="M14.65 5.42C15.26 4.97 16.265 5.305 16.895 6.16C17.0609 6.39173 17.1892 6.64823 17.275 6.92C17.3702 6.59782 17.3853 6.25729 17.3191 5.92794C17.2529 5.59858 17.1073 5.29036 16.895 5.03C16.265 4.17 15.26 3.835 14.65 4.285C14.4311 4.48225 14.2792 4.74293 14.2155 5.03067C14.1519 5.3184 14.1797 5.61882 14.295 5.89C14.3635 5.70125 14.4872 5.53748 14.65 5.42Z" fill="#525252"/>
<path d="M16.92 7.395C16.305 7.84 15.3 7.51 14.675 6.65C14.05 5.79 14.035 4.73 14.65 4.285C15.265 3.84 16.265 4.17 16.895 5.03C17.525 5.89 17.535 6.945 16.92 7.395Z" stroke="#45413C" stroke-width="0.5" stroke-linecap="round" stroke-linejoin="round"/>
<path d="M2.735 8.45C3.16 8.61 3.705 8.225 3.945 7.585C4.185 6.945 4.045 6.3 3.615 6.135C3.185 5.97 2.65 6.36 2.405 7C2.16 7.64 2.31 8.285 2.735 8.45Z" fill="#FFF48C"/>
<path d="M2.405 7.82C2.65 7.18 3.19 6.795 3.615 6.96C3.70916 7.00081 3.79278 7.06254 3.85949 7.14052C3.9262 7.2185 3.97426 7.31066 4 7.41C4.155 6.83 4 6.285 3.615 6.135C3.23 5.985 2.65 6.36 2.405 7C2.27265 7.31719 2.25323 7.67021 2.35 8C2.36373 7.93869 2.38212 7.87851 2.405 7.82Z" fill="#EBCB00"/>
<path d="M2.735 8.45C3.16 8.61 3.705 8.225 3.945 7.585C4.185 6.945 4.045 6.3 3.615 6.135C3.185 5.97 2.65 6.36 2.405 7C2.16 7.64 2.31 8.285 2.735 8.45Z" stroke="#45413C" stroke-width="0.5" stroke-linecap="round" stroke-linejoin="round"/>
<path d="M9.94 17.225C9.765 17.89 8.79 18.225 7.76 17.94C6.73 17.655 6.04 16.915 6.21 16.255C6.38 15.595 7.36 15.255 8.385 15.545C9.41 15.835 10.11 16.565 9.94 17.225Z" fill="#FFF48C"/>
<path d="M8.385 16.335C8.69291 16.3979 8.98381 16.526 9.2382 16.7105C9.49259 16.895 9.70459 17.1318 9.86 17.405C9.89172 17.3474 9.91848 17.2872 9.94 17.225C10.11 16.565 9.415 15.81 8.385 15.545C7.355 15.28 6.385 15.595 6.21 16.255C6.16468 16.4631 6.19296 16.6804 6.29 16.87C6.575 16.33 7.455 16.09 8.385 16.335Z" fill="#EBCB00"/>
<path d="M9.94 17.225C9.765 17.89 8.79 18.225 7.76 17.94C6.73 17.655 6.04 16.915 6.21 16.255C6.38 15.595 7.36 15.255 8.385 15.545C9.41 15.835 10.11 16.565 9.94 17.225Z" stroke="#45413C" stroke-width="0.5" stroke-linecap="round" stroke-linejoin="round"/>
<path d="M15.775 11.515C15.775 11.7709 15.8767 12.0164 16.0576 12.1974C16.2386 12.3783 16.4841 12.48 16.74 12.48C16.9959 12.48 17.2414 12.3783 17.4224 12.1974C17.6033 12.0164 17.705 11.7709 17.705 11.515C17.705 11.2591 17.6033 11.0136 17.4224 10.8326C17.2414 10.6517 16.9959 10.55 16.74 10.55C16.4841 10.55 16.2386 10.6517 16.0576 10.8326C15.8767 11.0136 15.775 11.2591 15.775 11.515Z" fill="#87898C"/>
<path d="M16.74 11.27C16.932 11.2697 17.1196 11.3273 17.2783 11.4352C17.4371 11.5431 17.5596 11.6964 17.63 11.875C17.6889 11.7293 17.7112 11.5713 17.6948 11.415C17.6784 11.2587 17.6238 11.1087 17.5359 10.9784C17.4481 10.8481 17.3295 10.7413 17.1907 10.6675C17.052 10.5937 16.8972 10.5551 16.74 10.5551C16.5828 10.5551 16.428 10.5937 16.2893 10.6675C16.1505 10.7413 16.0319 10.8481 15.9441 10.9784C15.8562 11.1087 15.8016 11.2587 15.7852 11.415C15.7688 11.5713 15.7911 11.7293 15.85 11.875C15.9204 11.6964 16.0429 11.5431 16.2017 11.4352C16.3604 11.3273 16.548 11.2697 16.74 11.27Z" fill="#525252"/>
<path d="M15.775 11.515C15.775 11.7709 15.8767 12.0164 16.0576 12.1974C16.2386 12.3783 16.4841 12.48 16.74 12.48C16.9959 12.48 17.2414 12.3783 17.4224 12.1974C17.6033 12.0164 17.705 11.7709 17.705 11.515C17.705 11.2591 17.6033 11.0136 17.4224 10.8326C17.2414 10.6517 16.9959 10.55 16.74 10.55C16.4841 10.55 16.2386 10.6517 16.0576 10.8326C15.8767 11.0136 15.775 11.2591 15.775 11.515V11.515Z" stroke="#45413C" stroke-width="0.5" stroke-linecap="round" stroke-linejoin="round"/>
<path d="M5.045 10.69C5.045 10.9459 5.14667 11.1914 5.32764 11.3724C5.50861 11.5533 5.75406 11.655 6.01 11.655C6.26593 11.655 6.51138 11.5533 6.69236 11.3724C6.87333 11.1914 6.975 10.9459 6.975 10.69C6.975 10.4341 6.87333 10.1886 6.69236 10.0076C6.51138 9.82667 6.26593 9.725 6.01 9.725C5.75406 9.725 5.50861 9.82667 5.32764 10.0076C5.14667 10.1886 5.045 10.4341 5.045 10.69Z" fill="#FFF48C"/>
<path d="M6 10.415C6.19452 10.4149 6.38455 10.4735 6.54515 10.5833C6.70576 10.693 6.82945 10.8487 6.9 11.03C6.95781 10.8837 6.97897 10.7254 6.96161 10.569C6.94426 10.4126 6.88892 10.2628 6.80043 10.1327C6.71193 10.0026 6.59297 9.89612 6.45389 9.82252C6.31482 9.74891 6.15985 9.71043 6.0025 9.71043C5.84515 9.71043 5.69018 9.74891 5.55111 9.82252C5.41203 9.89612 5.29306 10.0026 5.20457 10.1327C5.11608 10.2628 5.06074 10.4126 5.04339 10.569C5.02603 10.7254 5.04718 10.8837 5.105 11.03C5.17466 10.8491 5.29744 10.6936 5.45718 10.5838C5.61693 10.474 5.80617 10.4152 6 10.415Z" fill="#EBCB00"/>
<path d="M5.045 10.69C5.045 10.9459 5.14667 11.1914 5.32764 11.3724C5.50861 11.5533 5.75406 11.655 6.01 11.655C6.26593 11.655 6.51138 11.5533 6.69236 11.3724C6.87333 11.1914 6.975 10.9459 6.975 10.69C6.975 10.4341 6.87333 10.1886 6.69236 10.0076C6.51138 9.82667 6.26593 9.725 6.01 9.725C5.75406 9.725 5.50861 9.82667 5.32764 10.0076C5.14667 10.1886 5.045 10.4341 5.045 10.69V10.69Z" stroke="#45413C" stroke-width="0.5" stroke-linecap="round" stroke-linejoin="round"/>
<path d="M5.875 5.325C5.875 5.76261 6.04884 6.18229 6.35827 6.49173C6.66771 6.80116 7.08739 6.975 7.525 6.975C7.96261 6.975 8.38229 6.80116 8.69173 6.49173C9.00116 6.18229 9.175 5.76261 9.175 5.325C9.175 4.88739 9.00116 4.46771 8.69173 4.15827C8.38229 3.84884 7.96261 3.675 7.525 3.675C7.08739 3.675 6.66771 3.84884 6.35827 4.15827C6.04884 4.46771 5.875 4.88739 5.875 5.325Z" fill="#FFF48C"/>
<path d="M7.525 4.705C7.87142 4.70583 8.20873 4.816 8.48885 5.01981C8.76897 5.22362 8.9776 5.51065 9.085 5.84C9.14119 5.67913 9.17157 5.51037 9.175 5.34C9.175 4.90239 9.00116 4.48271 8.69173 4.17327C8.38229 3.86384 7.96261 3.69 7.525 3.69C7.08739 3.69 6.66771 3.86384 6.35827 4.17327C6.04884 4.48271 5.875 4.90239 5.875 5.34C5.87843 5.51037 5.90881 5.67913 5.965 5.84C6.07173 5.51024 6.28019 5.22277 6.56046 5.01886C6.84073 4.81494 7.1784 4.70507 7.525 4.705Z" fill="#EBCB00"/>
<path d="M5.89 5.325C5.89 5.54168 5.93268 5.75624 6.0156 5.95643C6.09852 6.15661 6.22006 6.33851 6.37327 6.49173C6.52649 6.64494 6.70838 6.76648 6.90857 6.8494C7.10876 6.93232 7.32332 6.975 7.54 6.975C7.75668 6.975 7.97124 6.93232 8.17143 6.8494C8.37161 6.76648 8.55351 6.64494 8.70673 6.49173C8.85994 6.33851 8.98148 6.15661 9.0644 5.95643C9.14732 5.75624 9.19 5.54168 9.19 5.325C9.19 5.10832 9.14732 4.89376 9.0644 4.69357C8.98148 4.49338 8.85994 4.31149 8.70673 4.15827C8.55351 4.00506 8.37161 3.88352 8.17143 3.8006C7.97124 3.71768 7.75668 3.675 7.54 3.675C7.32332 3.675 7.10876 3.71768 6.90857 3.8006C6.70838 3.88352 6.52649 4.00506 6.37327 4.15827C6.22006 4.31149 6.09852 4.49338 6.0156 4.69357C5.93268 4.89376 5.89 5.10832 5.89 5.325Z" stroke="#45413C" stroke-width="0.5" stroke-linecap="round" stroke-linejoin="round"/>
<path d="M10.275 13.025C10.275 13.3897 10.4199 13.7394 10.6777 13.9973C10.9356 14.2551 11.2853 14.4 11.65 14.4C12.0147 14.4 12.3644 14.2551 12.6223 13.9973C12.8801 13.7394 13.025 13.3897 13.025 13.025C13.025 12.6603 12.8801 12.3106 12.6223 12.0527C12.3644 11.7949 12.0147 11.65 11.65 11.65C11.2853 11.65 10.9356 11.7949 10.6777 12.0527C10.4199 12.3106 10.275 12.6603 10.275 13.025Z" fill="#FFF48C"/>
<path d="M11.65 12.5C11.9422 12.5 12.2266 12.5938 12.4615 12.7675C12.6964 12.9412 12.8694 13.1857 12.955 13.465C13.0013 13.3315 13.0249 13.1913 13.025 13.05C13.025 12.6853 12.8801 12.3356 12.6223 12.0777C12.3644 11.8199 12.0147 11.675 11.65 11.675C11.2853 11.675 10.9356 11.8199 10.6777 12.0777C10.4199 12.3356 10.275 12.6853 10.275 13.05C10.2775 13.1911 10.3011 13.3309 10.345 13.465C10.4306 13.1857 10.6036 12.9412 10.8385 12.7675C11.0734 12.5938 11.3578 12.5 11.65 12.5Z" fill="#EBCB00"/>
<path d="M10.275 13.025C10.275 13.3897 10.4199 13.7394 10.6777 13.9973C10.9356 14.2551 11.2853 14.4 11.65 14.4C12.0147 14.4 12.3644 14.2551 12.6223 13.9973C12.8801 13.7394 13.025 13.3897 13.025 13.025C13.025 12.6603 12.8801 12.3106 12.6223 12.0527C12.3644 11.7949 12.0147 11.65 11.65 11.65C11.2853 11.65 10.9356 11.7949 10.6777 12.0527C10.4199 12.3106 10.275 12.6603 10.275 13.025Z" stroke="#45413C" stroke-width="0.5" stroke-linecap="round" stroke-linejoin="round"/>
</g>
<defs>
<clipPath id="clip0_102_60">
<rect width="20" height="20" fill="white"/>
</clipPath>
</defs>
</svg>
