<svg width="30" height="30" viewBox="0 0 30 30" fill="none" xmlns="http://www.w3.org/2000/svg">
<path d="M22.0409 1.88438H8.06275V1.875H4.17212V4.6875H6.51587V25.3781C6.51587 26.8969 7.75337 28.1344 9.27212 28.1344H23.9627C24.6846 28.1344 25.2659 27.5531 25.2659 26.8313V5.10938C25.2659 3.32813 23.8221 1.88438 22.0409 1.88438Z" fill="#FFDEA7"/>
<path d="M10.1815 28.1157C10.1815 28.1157 12.2815 27.8063 12.7409 25.7719C12.8065 25.4907 13.1253 25.2844 13.5003 25.2844H27.3096C27.7971 25.2844 28.1628 25.6219 28.0784 25.9782C27.8628 26.8126 27.5159 28.125 23.9815 28.125C18.7596 28.125 10.1815 28.1157 10.1815 28.1157Z" fill="#E19747"/>
<path d="M6.51587 4.6875C6.51587 3.13125 5.46587 1.875 4.17212 1.875C3.0565 1.875 2.12839 2.8125 1.88464 4.05938C1.82839 4.37813 2.02525 4.6875 2.29712 4.6875H6.51587Z" fill="#D3883E"/>
<path d="M9.76904 11.1282C9.51016 11.1282 9.30029 11.338 9.30029 11.5969C9.30029 11.8558 9.51016 12.0657 9.76904 12.0657H22.0315C22.2904 12.0657 22.5003 11.8558 22.5003 11.5969C22.5003 11.338 22.2904 11.1282 22.0315 11.1282H9.76904ZM9.35654 14.3719C9.35654 14.1131 9.56641 13.9032 9.82529 13.9032H22.0315C22.2904 13.9032 22.5003 14.1131 22.5003 14.3719C22.5003 14.6308 22.2904 14.8407 22.0315 14.8407H9.82529C9.56641 14.8407 9.35654 14.6308 9.35654 14.3719ZM9.82529 16.7344C9.56641 16.7344 9.35654 16.9443 9.35654 17.2032C9.35654 17.462 9.56641 17.6719 9.82529 17.6719H22.0315C22.2904 17.6719 22.5003 17.462 22.5003 17.2032C22.5003 16.9443 22.2904 16.7344 22.0315 16.7344H9.82529ZM9.85341 19.5282C9.59453 19.5282 9.38466 19.7381 9.38466 19.9969C9.38466 20.2558 9.59453 20.4657 9.85341 20.4657H17.3159C17.5748 20.4657 17.7847 20.2558 17.7847 19.9969C17.7847 19.7381 17.5748 19.5282 17.3159 19.5282H9.85341Z" fill="#D3883E"/>
<g clip-path="url(#clip0_30_220)">
<path d="M19.125 18.875C19.125 20.9461 20.8039 22.625 22.875 22.625C24.9461 22.625 26.625 20.9461 26.625 18.875C26.625 16.8039 24.9461 15.125 22.875 15.125C20.8039 15.125 19.125 16.8039 19.125 18.875Z" fill="#00A6ED"/>
<path d="M24.8805 16.8995C25.0876 17.2582 25.0374 17.675 24.7684 17.8303C24.4993 17.9856 24.1134 17.8207 23.9062 17.462C23.6991 17.1033 23.7493 16.6866 24.0184 16.5313C24.2874 16.3759 24.6734 16.5408 24.8805 16.8995Z" fill="white"/>
<path d="M18.75 18.875C18.75 21.1532 20.5968 23 22.875 23C23.7357 23 24.5348 22.7364 25.1961 22.2855C25.093 22.7407 25.2187 23.2373 25.5731 23.5917L26.7664 24.7849C27.3155 25.3341 28.2059 25.3341 28.7551 24.7849C29.3043 24.2358 29.3043 23.3454 28.7551 22.7962L27.5619 21.603C27.2103 21.2514 26.7189 21.1249 26.2667 21.2235C26.729 20.557 27 19.7476 27 18.875C27 16.5968 25.1532 14.75 22.875 14.75C20.5968 14.75 18.75 16.5968 18.75 18.875ZM26.25 18.875C26.25 20.739 24.739 22.25 22.875 22.25C21.011 22.25 19.5 20.739 19.5 18.875C19.5 17.011 21.011 15.5 22.875 15.5C24.739 15.5 26.25 17.011 26.25 18.875Z" fill="#635994"/>
</g>
<defs>
<clipPath id="clip0_30_220">
<rect width="12" height="12" fill="white" transform="translate(18 14)"/>
</clipPath>
</defs>
</svg>
